<?xml version="1.0" encoding="UTF-8" standalone="no"?>
<!-- Created with Inkscape (http://www.inkscape.org/) -->

<svg
   xmlns:dc="http://purl.org/dc/elements/1.1/"
   xmlns:cc="http://creativecommons.org/ns#"
   xmlns:rdf="http://www.w3.org/1999/02/22-rdf-syntax-ns#"
   xmlns:svg="http://www.w3.org/2000/svg"
   xmlns="http://www.w3.org/2000/svg"
   xmlns:sodipodi="http://sodipodi.sourceforge.net/DTD/sodipodi-0.dtd"
   xmlns:inkscape="http://www.inkscape.org/namespaces/inkscape"
   width="1366"
   height="768"
   viewBox="0 0 0 1052.3622"
   id="svg2"
   version="1.1"
   inkscape:version="0.91 r13725"
   sodipodi:docname="vices.svg">
  <defs
     id="defs4" />
  <sodipodi:namedview
     id="base"
     pagecolor="#ffffff"
     bordercolor="#666666"
     borderopacity="1.0"
     inkscape:pageopacity="0.0"
     inkscape:pageshadow="2"
     inkscape:zoom="0.49497475"
     inkscape:cx="697.6619"
     inkscape:cy="243.38529"
     inkscape:document-units="px"
     inkscape:current-layer="svg2"
     showgrid="false"
     units="px"
     inkscape:snap-bbox="false"
     inkscape:bbox-paths="false"
     inkscape:bbox-nodes="false"
     inkscape:snap-page="true"
     inkscape:snap-others="false"
     inkscape:snap-nodes="false"
     inkscape:window-width="1364"
     inkscape:window-height="747"
     inkscape:window-x="0"
     inkscape:window-y="19"
     inkscape:window-maximized="1" />
  <metadata
     id="metadata7">
    <rdf:RDF>
      <cc:Work
         rdf:about="">
        <dc:format>image/svg+xml</dc:format>
        <dc:type
           rdf:resource="http://purl.org/dc/dcmitype/StillImage" />
        <dc:title></dc:title>
      </cc:Work>
    </rdf:RDF>
  </metadata>
  <rect
     style="fill:#000000;fill-opacity:1;fill-rule:evenodd;stroke:#000000;stroke-width:6.94619083px;stroke-linecap:butt;stroke-linejoin:miter;stroke-opacity:1"
     id="rect3642"
     width="1359.0538"
     height="761.05383"
     x="3.4730954"
     y="3.4730954" />
  <g
     inkscape:label="Layer 1"
     inkscape:groupmode="layer"
     id="layer1"
     transform="translate(0,-484.3622)" />
  <path
     id="path3467"
     d="m 231.8279,255.71497 c -3.43676,0 -6.2254,1.11812 -8.39838,3.406 -2.17298,2.28928 -3.26603,5.47289 -3.26603,9.51814 0,2.13894 0.46785,4.14784 1.39973,6.0655 0.93188,1.91767 2.29884,3.46466 4.10585,4.57244 1.80706,1.10776 3.86389,1.633 6.15883,1.633 2.11766,0 4.09579,-0.49025 5.92552,-1.49303 1.82972,-1.00282 3.24729,-2.48077 4.24583,-4.43247 0.99714,-1.95029 1.49305,-4.15454 1.49305,-6.62539 0,-2.43678 -0.4989,-4.60871 -1.44638,-6.53205 -0.94891,-1.92333 -2.29884,-3.45064 -4.10588,-4.52579 -1.80702,-1.07514 -3.86115,-1.58635 -6.11214,-1.58635 z m 0.0466,2.75278 c 1.60705,0 3.04699,0.39895 4.33916,1.21312 1.29214,0.81415 2.26853,1.97328 2.93941,3.45266 0.67091,1.47937 1.02648,3.19607 1.02648,5.17898 0,3.13606 -0.81078,5.57226 -2.37954,7.27858 -1.57014,1.70633 -3.54389,2.56617 -5.97216,2.56617 -2.3829,0 -4.39209,-0.82879 -5.97219,-2.5195 -1.58009,-1.69073 -2.37953,-4.01592 -2.37953,-6.95199 0,-3.66653 0.82609,-6.31781 2.47285,-7.88512 1.64677,-1.56733 3.6419,-2.3329 5.92552,-2.3329 z m 120.5632,10.77791 c -2.14745,0 -4.13835,0.51151 -5.92553,1.49305 -1.78856,0.98153 -3.13851,2.40035 -4.10585,4.29249 -0.96877,1.89073 -1.4464,4.08504 -1.4464,6.62537 0,2.329 0.40164,4.549 1.25976,6.57872 0.85813,2.02972 2.13535,3.54822 3.77927,4.61912 1.64392,1.07088 3.76806,1.63301 6.39209,1.63301 2.53466,0 4.68419,-0.70674 6.43875,-2.0996 1.75313,-1.39144 2.96414,-3.41309 3.63929,-6.06549 l -3.26603,-0.83983 c -0.44255,2.04957 -1.26991,3.62324 -2.51951,4.66575 -1.24961,1.04252 -2.76967,1.5397 -4.57245,1.5397 -1.48079,0 -2.88165,-0.35526 -4.15253,-1.11979 -1.27087,-0.7645 -2.19805,-1.95325 -2.79946,-3.49931 -0.60422,-1.54605 -0.88648,-3.33999 -0.88648,-5.41228 0,-1.60703 0.23732,-3.15233 0.74652,-4.66575 0.5092,-1.51341 1.40278,-2.74145 2.65947,-3.63929 1.2567,-0.89783 2.79633,-1.35308 4.66576,-1.35308 1.62548,0 2.98549,0.40463 4.05921,1.2131 1.0709,0.80849 1.90976,2.09959 2.47286,3.87258 l 3.17272,-0.74651 c -0.65246,-2.25242 -1.83839,-3.98173 -3.49932,-5.22566 -1.65952,-1.2425 -3.67676,-1.8663 -6.11214,-1.8663 z m 14.13724,0.41992 0,24.40193 3.21938,0 0,-11.52444 12.59754,0 0,11.52444 3.26602,0 0,-24.40193 -3.26602,0 0,10.03138 -12.59754,0 0,-10.03138 -3.21938,0 z m 25.66166,12.41091 c -1.44816,0 -2.66486,0.43284 -3.63928,1.25976 -0.97161,0.82833 -1.59255,1.99299 -1.86631,3.49931 l 2.23957,0.37326 c 0.16596,-1.09924 0.53683,-1.92109 1.11978,-2.47284 0.58295,-0.55034 1.31777,-0.79318 2.1929,-0.79318 0.88366,0 1.586,0.25418 2.14626,0.79318 0.55742,0.53757 0.83983,1.23168 0.83983,2.05292 0,1.03685 -0.40191,1.78838 -1.16643,2.28624 -0.76735,0.49642 -1.60877,0.74652 -2.56618,0.74652 -0.0921,0 -0.2229,-0.0296 -0.37325,-0.0466 l -0.2333,2.00628 c 0.63403,-0.16595 1.15943,-0.27995 1.58637,-0.27995 1.04393,0 1.8896,0.35841 2.56617,1.02647 0.67655,0.66948 1.02646,1.48834 1.02646,2.51951 0,1.0794 -0.34548,2.02234 -1.07312,2.7528 -0.72622,0.73047 -1.63667,1.07312 -2.70615,1.07312 -0.89925,0 -1.66496,-0.27815 -2.28622,-0.83982 -0.61842,-0.56027 -1.04542,-1.48192 -1.30641,-2.75281 l -2.23958,0.3266 c 0.14902,1.51768 0.75587,2.72997 1.81965,3.68595 1.06098,0.95599 2.40552,1.44639 4.01256,1.44639 1.78151,0 3.21989,-0.56907 4.38581,-1.67968 1.16592,-1.10917 1.77299,-2.46352 1.77299,-4.0592 0,-1.18009 -0.28368,-2.15507 -0.8865,-2.93944 -0.60139,-0.78721 -1.48535,-1.29006 -2.56615,-1.53969 0.83117,-0.38297 1.48886,-0.89292 1.91296,-1.53971 0.42409,-0.64679 0.60656,-1.35763 0.60656,-2.14626 0,-0.82974 -0.20784,-1.64196 -0.65322,-2.37953 -0.44538,-0.73755 -1.07328,-1.29939 -1.91296,-1.72632 -0.83826,-0.42835 -1.75283,-0.65321 -2.75281,-0.65321 z m -165.82104,2.05294 0,40.91871 -29.44094,17.03001 1.2131,2.09959 33.59346,-19.40955 47.54408,27.43465 0,54.86934 -33.6401,19.45621 1.21309,2.05294 33.73342,-19.50287 39.00575,12.69086 0.79317,-2.28623 -38.63247,-12.59754 0,-54.54274 38.63247,-12.55087 -0.79317,-2.28623 -39.00575,12.69087 -43.39154,-25.05513 0,-41.01202 -2.37954,0 0,39.61229 -3.07941,-1.77299 -2.98607,1.72634 0,-39.56564 -2.37955,0 z m 118.6969,12.13098 -7.13862,22.02238 2.23957,0.79317 7.18526,-22.11569 -2.28621,-0.69986 z m -213.41182,15.77027 c -2.14744,0 -4.13834,0.46484 -5.92552,1.44637 -1.78857,0.98152 -3.1371,2.44703 -4.10586,4.33916 -0.96876,1.89071 -1.49304,4.08504 -1.49304,6.62537 0,2.329 0.44827,4.50235 1.30641,6.53207 0.85814,2.02972 2.0887,3.59486 3.73261,4.66576 1.6439,1.07089 3.81473,1.58636 6.43873,1.58636 2.53467,0 4.6842,-0.70674 6.43876,-2.0996 1.75314,-1.39143 2.96413,-3.4131 3.63929,-6.06548 l -3.26604,-0.79318 c -0.44252,2.05099 -1.26991,3.57658 -2.51951,4.61909 -1.2496,1.04251 -2.76967,1.58637 -4.57243,1.58637 -1.48223,0 -2.88024,-0.40193 -4.15252,-1.16645 -1.27231,-0.7645 -2.19665,-1.90662 -2.79947,-3.45266 -0.60281,-1.54604 -0.88648,-3.34001 -0.88648,-5.41228 0,-1.60702 0.2373,-3.19899 0.74651,-4.71241 0.50921,-1.51342 1.40421,-2.69479 2.65949,-3.59263 1.25669,-0.89785 2.79631,-1.35307 4.66576,-1.35307 1.62546,0 2.98548,0.40462 4.0592,1.21309 1.0723,0.80847 1.90833,2.0996 2.47285,3.87258 l 3.17272,-0.74651 c -0.65246,-2.25242 -1.83838,-3.98173 -3.49932,-5.22566 -1.65951,-1.2425 -3.67676,-1.86629 -6.11214,-1.86629 z m -45.771087,0.41991 0,24.35524 3.26602,0 0,-11.47775 12.597557,0 0,11.47775 3.21938,0 0,-24.35524 -3.21938,0 0,9.98473 -12.597557,0 0,-9.98473 -3.26602,0 z m 238.513567,10.68459 0,24.40191 3.12606,0 0,-19.12961 12.73751,19.12961 3.35936,0 0,-24.40191 -3.12606,0 0,19.12961 -12.78417,-19.12961 -3.3127,0 z m -212.24535,1.72633 c -1.44817,0 -2.66627,0.38616 -3.63929,1.21308 -0.97301,0.82835 -1.59257,1.99299 -1.86631,3.49933 l 2.23956,0.41991 c 0.16597,-1.09924 0.53542,-1.92108 1.11979,-2.47285 0.58296,-0.55033 1.31777,-0.83983 2.19291,-0.83983 0.88366,0 1.5874,0.25419 2.14625,0.79318 0.55885,0.53758 0.83984,1.23169 0.83984,2.05294 0,1.03684 -0.40051,1.83502 -1.16644,2.33287 -0.76594,0.49644 -1.61018,0.69987 -2.56618,0.69987 -0.0922,0 -0.2229,0.0171 -0.37325,0 l -0.23329,1.95962 c 0.63402,-0.16595 1.15941,-0.23329 1.58635,-0.23329 1.04394,0 1.88959,0.31175 2.56617,0.97981 0.678,0.66947 1.02647,1.535 1.02647,2.56617 0,1.07938 -0.3455,1.97565 -1.07313,2.70613 -0.72764,0.73046 -1.63809,1.11978 -2.70613,1.11978 -0.90069,0 -1.6664,-0.27815 -2.28623,-0.83983 -0.61842,-0.56026 -1.04684,-1.48191 -1.3064,-2.75281 l -2.23957,0.27996 c 0.15034,1.51909 0.75443,2.77802 1.81965,3.7326 1.06095,0.956 2.40551,1.4464 4.01255,1.4464 1.78148,0 3.21988,-0.56908 4.38581,-1.67969 1.16592,-1.10917 1.77299,-2.46352 1.77299,-4.0592 0,-1.18011 -0.28511,-2.15505 -0.88649,-2.93943 -0.60283,-0.78721 -1.43871,-1.29006 -2.51952,-1.53971 0.83119,-0.38296 1.44221,-0.93956 1.86629,-1.58634 0.42411,-0.6468 0.60656,-1.35764 0.60656,-2.14626 0,-0.82977 -0.20926,-1.5939 -0.65321,-2.33288 -0.44678,-0.73756 -1.07327,-1.34605 -1.91294,-1.77298 -0.8397,-0.42836 -1.75426,-0.60655 -2.75281,-0.60655 z m 36.53289,5.41227 -1.2131,2.14626 20.29605,11.71105 1.2131,-2.14625 -20.29605,-11.71106 z m 24.68185,10.26467 0,24.35527 3.07941,0 0,-19.12962 12.78417,19.12962 3.31269,0 0,-24.35527 -3.12605,0 0,19.12962 -12.73753,-19.12962 -3.31269,0 z m 173.19296,8.67831 -2.00628,1.44639 21.08923,28.97437 -22.20901,30.51406 2.00629,1.39973 23.18882,-31.91379 -22.06905,-30.42076 z m -58.78855,8.44505 0,43.95143 2.42619,0 0,-43.95143 -2.42619,0 z m -105.95937,10.35797 0,34.15334 -37.51271,21.64913 1.2131,2.14625 36.29961,-20.94925 0,3.49932 2.98607,1.72631 -36.25294,20.90262 1.21311,2.09957 37.46603,-21.60245 29.34762,16.84339 1.21309,-2.05294 -33.54681,-19.36289 0,-39.0524 -2.42617,0 z m 173.89281,10.91788 -19.08295,26.22157 2.00627,1.44636 18.98963,-26.2682 -1.91295,-1.39973 z m -31.30724,35.27313 0,24.35524 3.12606,0 0,-19.12958 12.73751,19.12958 3.35936,0 0,-24.35524 -3.12606,0 0,19.1296 -12.78417,-19.1296 -3.3127,0 z m -190.03634,10.26467 c -3.43677,0 -6.27205,1.16481 -8.44502,3.45266 -2.17297,2.28929 -3.21938,5.47289 -3.21938,9.51814 0,2.13894 0.46784,4.14782 1.39973,6.06548 0.93188,1.91767 2.29883,3.41804 4.10587,4.52579 1.80702,1.10776 3.81719,1.67968 6.11214,1.67968 2.11766,0 4.09579,-0.49024 5.92551,-1.49304 1.82972,-1.00281 3.24729,-2.48077 4.24584,-4.43247 0.99713,-1.9503 1.49306,-4.20119 1.49306,-6.67203 0,-2.43681 -0.45224,-4.60875 -1.39974,-6.53207 -0.9489,-1.92336 -2.34549,-3.40399 -4.15252,-4.47912 -1.80703,-1.07514 -3.8145,-1.63302 -6.06549,-1.63302 z m 87.76291,0.51324 0,24.35524 3.12606,0 0,-19.1296 12.78419,19.1296 3.31269,0 0,-24.35524 -3.12606,0 0,19.12959 -12.7842,-19.12959 -3.31268,0 z m -88.60275,2.28621 c 0.27553,-0.0244 0.55439,0 0.83984,0 1.60704,0 3.047,0.39894 4.33915,1.2131 1.29215,0.81415 2.26854,1.97329 2.93942,3.45265 0.67092,1.47939 1.02649,3.1961 1.02649,5.17901 0,3.13606 -0.76415,5.57225 -2.3329,7.27857 -1.57015,1.70632 -3.59054,2.51952 -6.01882,2.51952 -2.38289,0 -4.34543,-0.82879 -5.92552,-2.51952 -1.58008,-1.69072 -2.37952,-4.01591 -2.37952,-6.95198 0,-3.66655 0.8261,-6.27115 2.47285,-7.83847 1.4409,-1.37141 3.11037,-2.16132 5.03901,-2.33288 z m 97.00114,22.4423 0,27.80791 2.42618,0 0,-27.80791 -2.42618,0 z m 2.23957,31.07394 c -2.14746,0 -4.13837,0.51152 -5.92554,1.49305 -1.7886,0.98154 -3.18378,2.40036 -4.15253,4.29249 -0.96876,1.89073 -1.44638,4.1317 -1.44638,6.67204 0,2.329 0.44829,4.50233 1.3064,6.53206 0.85814,2.02972 2.0887,3.54822 3.73261,4.61911 1.64392,1.07088 3.7681,1.63301 6.39212,1.63301 2.53467,0 4.68417,-0.70673 6.43872,-2.0996 1.75313,-1.39144 3.01081,-3.41309 3.68596,-6.06547 l -3.26602,-0.83984 c -0.44253,2.051 -1.26992,3.62324 -2.51951,4.66575 -1.2496,1.04252 -2.76969,1.5397 -4.57246,1.5397 -1.48221,0 -2.88022,-0.35526 -4.15251,-1.11979 -1.27228,-0.7645 -2.19665,-1.90658 -2.79948,-3.45265 -0.60281,-1.54605 -0.88649,-3.38666 -0.88649,-5.45895 0,-1.60703 0.23733,-3.15232 0.74653,-4.66575 0.5092,-1.51342 1.40422,-2.74143 2.65948,-3.6393 1.25671,-0.89782 2.79633,-1.30639 4.66578,-1.30639 1.62545,0 2.98549,0.4046 4.0592,1.21309 1.0723,0.80846 1.90834,2.09959 2.47285,3.87258 l 3.12605,-0.74654 c -0.65245,-2.25238 -1.79172,-4.02837 -3.45265,-5.27229 -1.65953,-1.24251 -3.67678,-1.86631 -6.11213,-1.86631 z m 14.09058,0.41992 0,24.40192 3.26602,0 0,-11.47777 12.59755,0 0,11.47777 3.21938,0 0,-24.40192 -3.21938,0 0,10.03139 -12.59755,0 0,-10.03139 -3.26602,0 z m 25.66166,12.41091 c -1.4496,0 -2.61961,0.43283 -3.59263,1.25977 -0.97301,0.82835 -1.63922,1.99297 -1.91297,3.49932 l 2.23957,0.37325 c 0.16595,-1.09924 0.53683,-1.92109 1.11979,-2.47285 0.58439,-0.55034 1.31774,-0.79318 2.1929,-0.79318 0.88366,0 1.63407,0.25562 2.1929,0.79318 0.55885,0.53757 0.83984,1.23168 0.83984,2.05295 0,1.03684 -0.40051,1.78978 -1.16644,2.28621 -0.76591,0.49644 -1.61015,0.74653 -2.56616,0.74653 -0.0921,0 -0.22435,0.0171 -0.37326,0 l -0.2333,1.95962 c 0.63403,-0.16595 1.15942,-0.27996 1.58637,-0.27996 1.04393,0 1.88957,0.35841 2.56616,1.02646 0.67798,0.66949 1.02647,1.535 1.02647,2.56617 0,1.07941 -0.39074,1.97568 -1.11977,2.70615 -0.72483,0.73047 -1.59145,1.07312 -2.65949,1.07312 -0.89926,0 -1.66639,-0.27815 -2.28622,-0.83983 -0.61842,-0.56027 -1.04686,-1.48191 -1.30641,-2.7528 l -2.23958,0.32659 c 0.14901,1.51911 0.75443,2.77804 1.81965,3.73262 1.06095,0.95599 2.35886,1.39972 3.96591,1.39972 1.78148,0 3.26654,-0.5224 4.43246,-1.633 1.1645,-1.10918 1.77299,-2.46353 1.77299,-4.05923 0,-1.1801 -0.33177,-2.20171 -0.93315,-2.98607 -0.6028,-0.78721 -1.4387,-1.29008 -2.51951,-1.5397 0.83117,-0.38297 1.48886,-0.89291 1.91295,-1.53971 0.4241,-0.64678 0.60656,-1.35763 0.60656,-2.14624 0,-0.82976 -0.20926,-1.64056 -0.65323,-2.37955 -0.44536,-0.73753 -1.07325,-1.2994 -1.91293,-1.72633 -0.8397,-0.42833 -1.80092,-0.65321 -2.79947,-0.65321 z"
     inkscape:connector-curvature="0"
     style="fill:#00b6b6;fill-opacity:1" />
  <g
     id="layer1-1"
     transform="translate(138.94413,-1050.5876)"
     style="fill:#00b6b6;fill-opacity:1">
    <path
       style="fill:#00b6b6;fill-opacity:1"
       id="path2453"
       d="m 400.7626,1592.0057 c -0.77514,-0.4726 -1.73987,-1.5524 -2.14384,-2.3996 -0.63843,-1.3388 -0.65183,-1.5925 -0.1024,-1.94 1.07308,-0.6787 1.58586,-0.4643 2.15067,0.8993 0.64098,1.5474 1.59709,2.1432 3.43985,2.1432 2.54501,0 4.25003,-2.9078 3.0356,-5.177 -0.51617,-0.9645 -3.0321,-1.8705 -4.07875,-1.4689 -0.59654,0.2289 -0.72167,0.089 -0.60584,-0.6791 0.10289,-0.6819 0.64339,-1.1378 1.83054,-1.5439 2.56093,-0.8762 3.16893,-2.4751 1.55494,-4.0891 -1.60739,-1.6073 -4.90475,-0.6193 -5.67838,1.7016 -0.12701,0.381 -0.51583,0.4696 -1.16169,0.2646 -1.2265,-0.3893 -0.9341,-1.6479 0.79674,-3.4295 1.71645,-1.7668 4.79498,-2.0475 6.87389,-0.6268 2.3846,1.6295 2.82754,4.6409 0.92256,6.272 -0.78816,0.6748 -0.76658,0.7431 0.65972,2.0883 4.55166,4.2927 -2.03608,11.3124 -7.49361,7.9849 z m 19.19791,-6.6742 c -2.72086,-0.9703 -4.14233,-2.3998 -5.82033,-5.8531 -1.0008,-2.0597 -1.15538,-2.9215 -1.16215,-6.479 -0.009,-4.536 0.88006,-7.2612 3.14685,-9.65 2.57737,-2.7162 7.36393,-3.947 11.25565,-2.8943 2.25599,0.6102 4.97102,3.0519 5.88211,5.2898 l 0.65141,1.6001 -1.61733,0.4471 c -0.88953,0.2458 -1.6667,0.3033 -1.72703,0.1276 -0.43843,-1.2767 -2.05753,-3.276 -3.23382,-3.9932 -3.12455,-1.9051 -7.90916,-0.4323 -9.83037,3.0259 -0.93964,1.6913 -1.07983,2.4764 -1.07983,6.047 0,3.5706 0.14019,4.3557 1.07983,6.047 1.44239,2.5963 4.11111,4.0194 7.05105,3.76 2.59709,-0.2292 4.08808,-1.2967 5.47494,-3.92 1.03953,-1.9663 1.13625,-2.0322 2.59159,-1.7666 0.83146,0.1518 1.57387,0.3369 1.64979,0.4115 0.45711,0.4487 -2.03508,4.8011 -3.43551,5.9998 -2.76304,2.3651 -7.22343,3.1034 -10.87685,1.8004 z m -45.64809,-12.3321 0,-12.526 1.72772,0 1.72772,0 0,5.1832 0,5.1831 6.47897,0 6.47896,0 0,-5.1831 0,-5.1832 1.72772,0 1.72772,0 0,12.526 0,12.526 -1.72772,0 -1.72772,0 0,-5.8311 0,-5.831 -6.47896,0 -6.47897,0 0,5.831 0,5.8311 -1.72772,0 -1.72772,0 0,-12.526 z m 550.81423,-7.7734 c -0.77514,-0.4726 -1.73986,-1.5524 -2.14389,-2.3996 -0.63843,-1.3388 -0.65182,-1.5925 -0.10241,-1.94 1.07309,-0.6787 1.58588,-0.4643 2.15067,0.8993 0.64103,1.5474 1.59715,2.1432 3.4399,2.1432 2.54502,0 4.25002,-2.9078 3.03561,-5.177 -0.5162,-0.9645 -3.03211,-1.8706 -4.07881,-1.4689 -0.5965,0.2289 -0.72163,0.089 -0.60583,-0.6791 0.10289,-0.6819 0.64341,-1.1378 1.83057,-1.5439 2.56092,-0.8762 3.1689,-2.4751 1.55491,-4.0891 -1.60735,-1.6074 -4.90471,-0.6193 -5.67838,1.7016 -0.12695,0.381 -0.51581,0.4696 -1.16168,0.2646 -1.22651,-0.3893 -0.93405,-1.6479 0.79674,-3.4295 1.71649,-1.7668 4.79495,-2.0475 6.87388,-0.6268 2.3846,1.6295 2.82755,4.6409 0.92256,6.272 -0.78815,0.6748 -0.76655,0.7431 0.65973,2.0883 4.55164,4.2927 -2.03608,11.3124 -7.49357,7.9849 z m -440.97715,-6.648 c -2.75023,-0.8991 -5.10893,-3.0082 -6.47476,-5.7895 -1.06832,-2.1756 -1.21068,-2.948 -1.21068,-6.5688 0,-3.6245 0.14181,-4.3921 1.21526,-6.5781 2.59917,-5.2931 7.99186,-7.5165 13.9319,-5.7443 4.57706,1.3655 7.39644,5.3668 7.8311,11.114 0.6026,7.9677 -3.70116,13.5675 -10.7564,13.9957 -1.59574,0.097 -3.47018,-0.08 -4.53642,-0.429 z m 8.39735,-3.9905 c 2.08927,-1.6655 3.164,-3.8624 3.454,-7.0605 0.4446,-4.9031 -1.38024,-8.862 -4.801,-10.4154 -4.46531,-2.0278 -9.46152,0.2533 -10.85857,4.9577 -2.30127,7.7492 1.54808,14.3871 8.10223,13.9717 1.96179,-0.1244 2.81523,-0.4267 4.10334,-1.4535 z m 387.8519,3.9643 c -2.72087,-0.9703 -4.14235,-2.3999 -5.82032,-5.8531 -1.00082,-2.0597 -1.15541,-2.9215 -1.16215,-6.479 -0.009,-4.536 0.88006,-7.2612 3.14683,-9.65 2.57738,-2.7162 7.36395,-3.947 11.25565,-2.8943 2.25606,0.6102 4.97104,3.0519 5.88216,5.2898 l 0.65139,1.6001 -1.61736,0.4471 c -0.88952,0.2458 -1.66669,0.3033 -1.72699,0.1276 -0.43845,-1.2767 -2.0575,-3.276 -3.23387,-3.9932 -3.12454,-1.9051 -7.90908,-0.4324 -9.83035,3.0259 -0.93963,1.6913 -1.07983,2.4763 -1.07983,6.047 0,3.5706 0.1402,4.3557 1.07983,6.047 1.44243,2.5963 4.11111,4.0194 7.05105,3.76 2.59707,-0.2292 4.0881,-1.2967 5.47494,-3.9201 1.03953,-1.9662 1.13624,-2.0321 2.59159,-1.7665 0.83146,0.1518 1.57391,0.3369 1.6498,0.4115 0.45711,0.4487 -2.03509,4.8011 -3.43549,5.9998 -2.76302,2.3651 -7.22344,3.1034 -10.87688,1.8004 z m 18.27767,-12.3321 0,-12.526 1.72772,0 1.72772,0 0,5.1832 0,5.1831 6.47897,0 6.47896,0 0,-5.1831 0,-5.1832 1.72772,0 1.72772,0 0,12.526 0,12.526 -1.72772,0 -1.72772,0 0,-5.8311 0,-5.831 -6.47896,0 -6.47897,0 0,5.831 0,5.8311 -1.72772,0 -1.72772,0 0,-12.526 z m -471.34449,11.3643 c -0.41574,-0.1086 -0.75588,-0.2837 -0.75588,-0.3892 0,-0.1534 3.19333,-12.134 9.90658,-37.1668 0.36294,-1.3534 0.36125,-1.3551 -0.99211,-0.9928 -0.74563,0.1996 -9.35926,2.5104 -19.14142,5.1351 -9.78215,2.6247 -17.97156,4.7722 -18.1987,4.7722 -0.44491,0 -1.04278,-1.7746 -0.70998,-2.1074 0.11076,-0.1108 9.05583,-2.5769 19.87791,-5.4802 10.82208,-2.9034 19.76339,-5.3657 19.86957,-5.4719 0.10618,-0.1062 0.14297,-12.1966 0.0818,-26.8676 l -0.11131,-26.6746 -15.11758,11.0363 c -13.63788,9.9561 -15.17281,10.9642 -15.68184,10.3005 -1.27891,-1.6676 -4.87715,-8.3086 -4.67713,-8.6323 0.11877,-0.1922 7.87343,-3.7349 17.23258,-7.8727 l 17.01662,-7.5232 -24.00638,-13.8566 -24.00638,-13.8565 0,-29.2924 0,-29.2923 24.72804,-14.2725 24.72804,-14.2726 0,-19.3702 0,-19.3702 1.29139,0 1.29139,0 0.11238,19.4748 0.11239,19.4747 24.49933,14.1079 24.49934,14.1079 0.12072,28.6722 0.12072,28.6722 23.7562,13.762 c 14.84071,8.5973 24.08039,13.7045 24.62005,13.6086 0.47513,-0.084 11.45697,-6.28 24.4041,-13.7681 l 23.54023,-13.6146 0.11234,-19.7036 0.11234,-19.7036 1.07111,0 1.07111,0 0.11234,19.7004 0.11234,19.7004 24.72804,14.262 24.72802,14.262 0,28.5846 0,28.5847 22.74327,13.1488 c 12.50876,7.2319 23.37688,13.4852 24.15129,13.8962 l 1.40809,0.7473 24.67163,-14.2615 c 13.56941,-7.8438 24.8108,-14.1845 24.98085,-14.0903 0.17005,0.094 11.31581,6.5211 24.76834,14.2822 l 24.45925,14.111 24.72661,-14.2898 24.7267,-14.2898 7.18107,4.1334 c 24.59638,14.1574 30.01971,17.3497 30.15253,17.7482 0.0817,0.2451 -0.0979,0.7828 -0.39919,1.1948 -0.4985,0.6817 -2.14052,-0.171 -18.25496,-9.4801 -9.73891,-5.626 -18.00054,-10.3061 -18.35909,-10.4002 -0.35863,-0.094 -11.60611,6.1563 -24.99445,13.8898 -13.38839,7.7336 -24.53406,14.061 -24.76821,14.061 -0.23419,0 -11.3752,-6.317 -24.7578,-14.0377 -13.38264,-7.7208 -24.52123,-14.0378 -24.7524,-14.0378 -0.23117,0 -11.37127,6.3251 -24.75581,14.0557 -13.3845,7.7307 -24.63462,13.9794 -25.0002,13.8861 -0.36563,-0.093 -11.49018,-6.4184 -24.72126,-14.0557 -13.23108,-7.6374 -24.24527,-13.8861 -24.47597,-13.8861 -0.23069,0 -11.44792,6.3656 -24.92719,14.1458 -13.47926,7.7801 -24.61555,14.0957 -24.74731,14.0346 -0.13177,-0.061 -11.1815,-6.4266 -24.55496,-14.1457 -13.37346,-7.7191 -24.50635,-14.0347 -24.73974,-14.0347 -0.2334,0 -8.14526,4.46 -17.58191,9.9111 -9.43665,5.4511 -17.4495,10.021 -17.80633,10.1555 -0.56164,0.2116 -2.05384,-1.3314 -1.64878,-1.7049 0.0759,-0.07 8.15563,-4.7474 17.95506,-10.3945 l 17.81715,-10.2673 0,-27.9128 0,-27.9127 -23.84947,-13.7703 c -13.11722,-7.5737 -24.0691,-13.7704 -24.33752,-13.7704 -0.26843,0 -11.20829,6.1843 -24.31082,13.7428 l -23.82277,13.7427 0,27.9537 0,27.9538 17.57952,10.1422 c 9.66874,5.5782 17.64048,10.3251 17.71499,10.5486 0.0745,0.2236 -0.11588,0.7501 -0.42307,1.1703 -0.51301,0.7016 -1.93452,-0.03 -17.43731,-8.9699 -9.28332,-5.3536 -17.15319,-9.8391 -17.48861,-9.9678 -0.47726,-0.1831 -1.7349,3.9924 -5.7848,19.2065 -2.84622,10.6922 -5.36932,19.4199 -5.60688,19.3947 -0.23757,-0.025 -0.77208,-0.1347 -1.18781,-0.2434 z m 184.00253,-27.5503 23.86415,-13.742 0,-27.9423 0,-27.9423 -23.8396,-13.7486 c -13.1118,-7.5618 -24.05979,-13.7487 -24.32889,-13.7487 -0.26908,0 -11.21338,6.1926 -24.32066,13.7612 l -23.8314,13.7612 0,27.9266 0,27.9265 24.03901,13.8715 c 13.22146,7.6294 24.15471,13.8147 24.29611,13.7452 0.14141,-0.07 10.99598,-6.3103 24.12128,-13.8683 z m -24.27626,5.5734 c -0.66448,-1.0142 -0.63784,-1.0437 2.67801,-2.9629 1.84204,-1.0661 11.02674,-6.3897 20.41044,-11.83 14.88963,-8.6325 17.13001,-9.8063 17.60116,-9.2218 0.29695,0.3684 0.53991,0.8831 0.53991,1.1438 0,0.2606 -5.87765,3.8679 -13.06148,8.0161 -7.18383,4.1482 -16.30947,9.418 -20.27919,11.7107 l -7.21769,4.1684 -0.67116,-1.0243 z m -42.13311,-47.2661 0,-23.7562 1.2958,0 1.29579,0 0,23.7562 0,23.7562 -1.29579,0 -1.2958,0 0,-23.7562 z m 65.40905,-32.3387 c -9.28057,-5.376 -18.46452,-10.7004 -20.40878,-11.8321 -3.2576,-1.896 -3.49295,-2.1248 -2.99912,-2.9155 0.29473,-0.472 0.71533,-0.8581 0.93466,-0.8581 0.7844,0 40.42682,23.0994 40.42682,23.5564 0,0.2567 -0.24296,0.7721 -0.53991,1.1453 -0.47349,0.5952 -2.61489,-0.5233 -17.41367,-9.096 z m -147.04397,-11.8438 23.54023,-13.6283 0.1111,-27.8105 0.11111,-27.8106 -23.65304,-13.6616 c -13.00918,-7.5139 -23.95913,-13.779 -24.33325,-13.9226 -0.42912,-0.1646 -9.55711,4.8646 -24.72947,13.6252 l -24.04926,13.8863 0.11111,27.8846 0.11112,27.8847 23.7562,13.7525 c 15.05642,8.7163 24.07255,13.6932 24.62006,13.5906 0.47512,-0.089 11.45696,-6.2947 24.40409,-13.7903 z m -4.73941,-75.8226 c -11.02683,-6.3747 -20.11075,-11.7763 -20.1865,-12.0035 -0.0758,-0.2272 0.11113,-0.7535 0.41528,-1.1694 0.50529,-0.6911 2.30962,0.2573 20.91383,10.9925 19.78169,11.4147 20.34771,11.7777 19.90019,12.7598 -0.25334,0.5561 -0.58063,1.011 -0.72732,1.011 -0.14669,0 -9.28866,-5.2157 -20.31548,-11.5904 z m -98.38966,183.0683 c -0.77514,-0.4726 -1.73987,-1.5524 -2.14384,-2.3996 -0.63843,-1.3388 -0.65183,-1.5925 -0.1024,-1.94 1.07308,-0.6787 1.58586,-0.4643 2.15068,0.8993 0.64097,1.5474 1.59709,2.1432 3.43984,2.1432 2.54502,0 4.25004,-2.9078 3.0356,-5.177 -0.51617,-0.9645 -3.0321,-1.8705 -4.07875,-1.4689 -0.59654,0.2289 -0.72167,0.089 -0.60583,-0.6791 0.10288,-0.6819 0.64339,-1.1378 1.83053,-1.5439 2.56094,-0.8762 3.16893,-2.4751 1.55494,-4.0891 -1.60738,-1.6073 -4.90475,-0.6193 -5.67838,1.7016 -0.127,0.381 -0.51583,0.4696 -1.16169,0.2646 -1.2265,-0.3893 -0.9341,-1.6479 0.79674,-3.4295 1.71646,-1.7668 4.79498,-2.0475 6.87389,-0.6268 2.3846,1.6295 2.82754,4.6409 0.92256,6.272 -0.78815,0.6748 -0.76658,0.7431 0.65973,2.0883 4.55165,4.2927 -2.03609,11.3124 -7.49362,7.9849 z m 19.62984,-6.6742 c -2.72086,-0.9703 -4.14233,-2.3998 -5.82033,-5.8531 -1.0008,-2.0597 -1.15538,-2.9215 -1.16215,-6.479 -0.009,-4.536 0.88007,-7.2612 3.14685,-9.65 2.57737,-2.7162 7.36393,-3.947 11.25565,-2.8943 2.256,0.6102 4.97103,3.0519 5.88211,5.2898 l 0.65142,1.6001 -1.61734,0.4471 c -0.88953,0.2458 -1.66669,0.3033 -1.72702,0.1276 -0.43843,-1.2767 -2.05753,-3.276 -3.23382,-3.9932 -3.12456,-1.9051 -7.90916,-0.4323 -9.83038,3.0259 -0.93964,1.6913 -1.07982,2.4764 -1.07982,6.047 0,3.5706 0.14018,4.3557 1.07982,6.047 1.4424,2.5963 4.11111,4.0194 7.05105,3.76 2.59709,-0.2292 4.08808,-1.2967 5.47495,-3.92 1.03952,-1.9663 1.13624,-2.0322 2.59158,-1.7666 0.83147,0.1518 1.57388,0.3369 1.64979,0.4115 0.45711,0.4487 -2.03508,4.8011 -3.43551,5.9998 -2.76304,2.3651 -7.22343,3.1034 -10.87685,1.8004 z m -45.64809,-12.3321 0,-12.526 1.72772,0 1.72773,0 0,5.1832 0,5.1831 6.47896,0 6.47896,0 0,-5.1831 0,-5.1832 1.72772,0 1.72773,0 0,12.526 0,12.526 -1.72773,0 -1.72772,0 0,-5.8311 0,-5.831 -6.47896,0 -6.47896,0 0,5.831 0,5.8311 -1.72773,0 -1.72772,0 0,-12.526 z m 44.92081,-43.1931 0,-12.526 1.72772,0 1.72772,0 0,5.1832 0,5.1832 6.47896,0 6.47897,0 0,-5.1832 0,-5.1832 1.72772,0 1.72772,0 0,12.526 0,12.526 -1.72772,0 -1.72772,0 0,-5.8311 0,-5.831 -6.47897,0 -6.47896,0 0,5.831 0,5.8311 -1.72772,0 -1.72772,0 0,-12.526 z m 114.31137,-61.0786 c -0.52555,-0.8021 -0.56164,-1.1328 -0.15766,-1.4445 1.21,-0.9337 1.54667,-0.9062 2.26153,0.1848 0.71809,1.096 0.71649,1.1743 -0.0353,1.724 -1.0721,0.784 -1.28146,0.737 -2.06856,-0.4643 z m 6.45574,-3.8011 -1.10775,-1.8536 0.96458,-0.7325 c 1.09019,-0.828 1.11754,-0.8094 2.49132,1.6995 1.08718,1.9855 1.082,2.0273 -0.30375,2.4527 -0.77496,0.2379 -1.12789,-0.032 -2.0444,-1.5661 z m 6.56207,-3.6162 -1.54756,-2.7064 0.96238,-0.9041 0.96237,-0.9041 0.4784,0.9789 c 0.26312,0.5385 1.05647,1.9632 1.763,3.166 l 1.28459,2.187 -1.17781,0.4446 c -1.13398,0.428 -1.23539,0.3439 -2.72537,-2.2619 z m 6.49079,-3.7467 c -1.87859,-3.3054 -1.9729,-3.6128 -1.32732,-4.3261 0.38222,-0.4223 0.85776,-0.7136 1.05674,-0.6473 0.19899,0.066 1.30864,1.7717 2.46589,3.7899 2.07996,3.6272 2.09351,3.6753 1.18149,4.1939 -0.50743,0.2885 -1.01978,0.5298 -1.13856,0.5363 -0.11879,0.01 -1.12599,-1.5896 -2.23824,-3.5467 z m 6.41637,-3.8893 -2.51679,-4.4047 0.96711,-0.7831 0.96712,-0.7831 1.6909,2.9335 c 0.93,1.6134 2.16505,3.751 2.74457,4.7502 1.02994,1.7758 1.03469,1.8269 0.21112,2.2677 -0.4634,0.248 -1.0011,0.4449 -1.19489,0.4376 -0.19379,-0.01 -1.4849,-1.9955 -2.86914,-4.4181 z m 8.34786,-9.3904 0,-12.526 1.72772,0 1.72773,0 0,5.1832 0,5.1832 6.47896,0 6.47896,0 0,-5.1832 0,-5.1832 1.72772,0 1.72773,0 0,12.526 0,12.526 -1.72773,0 -1.72772,0 0,-5.8311 0,-5.831 -6.47896,0 -6.47896,0 0,5.831 0,5.8311 -1.72773,0 -1.72772,0 0,-12.526 z m 55.4138,-16.1491 c -2.75023,-0.8991 -5.10893,-3.0082 -6.47476,-5.7896 -1.06832,-2.1755 -1.21068,-2.9479 -1.21068,-6.5687 0,-3.6245 0.14181,-4.3921 1.21526,-6.5782 2.59917,-5.293 7.99186,-7.5164 13.9319,-5.7442 4.57706,1.3655 7.39644,5.3668 7.8311,11.114 0.6026,7.9677 -3.70116,13.5675 -10.7564,13.9957 -1.59574,0.097 -3.47018,-0.08 -4.53642,-0.429 z m 8.39735,-3.9905 c 2.08927,-1.6655 3.164,-3.8624 3.454,-7.0605 0.4446,-4.9031 -1.38024,-8.862 -4.801,-10.4154 -4.46531,-2.0278 -9.46153,0.2533 -10.85857,4.9577 -2.30127,7.7492 1.54808,14.3871 8.10223,13.9717 1.96179,-0.1244 2.81523,-0.4267 4.10334,-1.4535 z m 11.34481,-8.3678 0,-12.526 1.72773,0 1.72772,0 0,5.1832 0,5.1831 6.47896,0 6.47896,0 0,-5.1831 0,-5.1832 1.72773,0 1.72772,0 0,12.526 0,12.526 -1.72772,0 -1.72773,0 0,-5.8311 0,-5.8311 -6.47896,0 -6.47896,0 0,5.8311 0,5.8311 -1.72772,0 -1.72773,0 0,-12.526 z m -122.99788,-66.948 c -0.77514,-0.4726 -1.73987,-1.5524 -2.14384,-2.3995 -0.63843,-1.3388 -0.65183,-1.5925 -0.1024,-1.94 1.07308,-0.6787 1.58586,-0.4643 2.15068,0.8993 0.64097,1.5474 1.59709,2.1431 3.43984,2.1431 2.54501,0 4.25004,-2.9078 3.0356,-5.177 -0.51617,-0.9644 -3.0321,-1.8705 -4.07875,-1.4689 -0.59654,0.2289 -0.72167,0.089 -0.60584,-0.679 0.10289,-0.6819 0.6434,-1.1378 1.83054,-1.544 2.56094,-0.8762 3.16893,-2.475 1.55494,-4.089 -1.60739,-1.6074 -4.90475,-0.6193 -5.67838,1.7016 -0.12701,0.381 -0.51583,0.4695 -1.16169,0.2645 -1.2265,-0.3892 -0.9341,-1.6479 0.79674,-3.4294 1.71645,-1.7668 4.79498,-2.0475 6.87389,-0.6269 2.3846,1.6296 2.82754,4.6409 0.92256,6.272 -0.78815,0.6748 -0.76658,0.7431 0.65973,2.0883 4.55165,4.2928 -2.03609,11.3124 -7.49362,7.9849 z m -44.72785,-6.6741 c -2.72086,-0.9704 -4.14233,-2.3999 -5.82033,-5.8532 -1.0008,-2.0596 -1.15538,-2.9214 -1.16215,-6.479 -0.009,-4.5359 0.88006,-7.2611 3.14685,-9.65 2.57736,-2.7161 7.36393,-3.9469 11.25565,-2.8943 2.25599,0.6103 4.97102,3.0519 5.88211,5.2899 l 0.65141,1.6001 -1.61733,0.447 c -0.88953,0.2459 -1.6667,0.3033 -1.72703,0.1276 -0.43843,-1.2767 -2.05753,-3.2759 -3.23382,-3.9931 -3.12456,-1.9051 -7.90916,-0.4324 -9.83037,3.0258 -0.93964,1.6914 -1.07983,2.4764 -1.07983,6.047 0,3.5707 0.14019,4.3557 1.07983,6.0471 1.44239,2.5963 4.11111,4.0194 7.05105,3.7599 2.59709,-0.2291 4.08808,-1.2967 5.47494,-3.92 1.03953,-1.9663 1.13625,-2.0322 2.59159,-1.7666 0.83146,0.1518 1.57387,0.337 1.64979,0.4115 0.45711,0.4487 -2.03508,4.8012 -3.43552,5.9999 -2.76304,2.365 -7.22342,3.1034 -10.87684,1.8004 z m 18.27767,-12.3322 0,-12.526 1.72772,0 1.72772,0 0,5.1832 0,5.1832 6.47897,0 6.47896,0 0,-5.1832 0,-5.1832 1.72772,0 1.72773,0 0,12.526 0,12.526 -1.72773,0 -1.72772,0 0,-5.831 0,-5.8311 -6.47896,0 -6.47897,0 0,5.8311 0,5.831 -1.72772,0 -1.72772,0 0,-12.526 z"
       inkscape:connector-curvature="0" />
  </g>
  <g
     style="clip-rule:evenodd;stroke-miterlimit:10;fill:#00b6b6;fill-opacity:1"
     id="g3612"
     transform="matrix(0.14167633,0,0,0.14167633,1140.787,355.57548)">
    <g
       id="g3596"
       style="fill:#00b6b6;fill-opacity:1">
      <g
         id="g3598"
         style="fill:#00b6b6;fill-opacity:1">
        <path
           id="path3600"
           d="m 392.36,52.27 0,18.6 L 57.5,264.73 48.69,250.04 392.36,52.27"
           inkscape:connector-curvature="0"
           style="fill:#00b6b6;fill-opacity:1" />
        <path
           id="path3602"
           d="m 647.06,260.64 c 0,-29.09 7.8,-51.87 23.42,-68.33 15.61,-16.46 35.76,-24.69 60.45,-24.69 16.17,0 30.74,3.87 43.72,11.6 12.99,7.73 22.88,18.51 29.69,32.34 6.81,13.83 10.22,29.51 10.22,47.05 0,17.77 -3.59,33.68 -10.76,47.7 -7.16,14.03 -17.32,24.65 -30.46,31.86 -13.14,7.22 -27.32,10.82 -42.53,10.82 -16.49,0 -31.22,-3.98 -44.21,-11.95 -12.98,-7.97 -22.81,-18.85 -29.51,-32.64 -6.69,-13.79 -10.03,-28.38 -10.03,-43.76 z m 23.87,0.36 c 0,21.11 5.68,37.75 17.03,49.9 11.36,12.15 25.6,18.22 42.73,18.22 17.45,0 31.81,-6.13 43.08,-18.4 11.27,-12.27 16.91,-29.68 16.91,-52.23 0,-14.26 -2.41,-26.71 -7.23,-37.35 -4.82,-10.63 -11.87,-18.88 -21.15,-24.73 -9.28,-5.86 -19.7,-8.79 -31.25,-8.79 -16.42,0 -30.54,5.64 -42.37,16.91 -11.83,11.28 -17.75,30.1 -17.75,56.47 z m 0,0"
           inkscape:connector-curvature="0"
           style="fill:#00b6b6;fill-opacity:1" />
        <path
           id="path3604"
           d="m 845.86,345.99 0,-175.24 23.13,0 0,72 91,0 0,-72 23.12,0 0,175.24 -23.12,0 0,-82.62 -91,0 0,82.62 -23.13,0 z m 0,0"
           inkscape:connector-curvature="0"
           style="fill:#00b6b6;fill-opacity:1" />
        <path
           id="path3606"
           d="m 638.12,194.24 -8.81,14.68 -236.95,-138.05 0,-18.6 245.76,141.97"
           inkscape:connector-curvature="0"
           style="fill:#00b6b6;fill-opacity:1" />
      </g>
    </g>
  </g>
</svg>
