<?xml version="1.0" encoding="UTF-8" standalone="no"?>
<!-- Created with Inkscape (http://www.inkscape.org/) -->

<svg
   xmlns:dc="http://purl.org/dc/elements/1.1/"
   xmlns:cc="http://creativecommons.org/ns#"
   xmlns:rdf="http://www.w3.org/1999/02/22-rdf-syntax-ns#"
   xmlns:svg="http://www.w3.org/2000/svg"
   xmlns="http://www.w3.org/2000/svg"
   xmlns:sodipodi="http://sodipodi.sourceforge.net/DTD/sodipodi-0.dtd"
   xmlns:inkscape="http://www.inkscape.org/namespaces/inkscape"
   width="1366"
   height="768"
   viewBox="0 0 0 1052.3622"
   id="svg2"
   version="1.1"
   inkscape:version="0.91 r13725"
   sodipodi:docname="background.svg"
   inkscape:export-filename="/home/aauthor/.config/awesome/themes/aauthor/background.png"
   inkscape:export-xdpi="90"
   inkscape:export-ydpi="90">
  <defs
     id="defs4">
    <clipPath
       id="Clip0">
      <path
         id="path4278"
         transform="translate(0.840068, 7.92739)"
         d="M0 0 L568.34 0 L568.34 279.938 L0 279.938 L0 0 Z" />
    </clipPath>
    <clipPath
       id="Clip0-0">
      <path
         id="path4558"
         transform="translate(0.840068, 7.92739)"
         d="M0 0 L568.34 0 L568.34 279.938 L0 279.938 L0 0 Z" />
    </clipPath>
  </defs>
  <sodipodi:namedview
     id="base"
     pagecolor="#ffffff"
     bordercolor="#666666"
     borderopacity="1.0"
     inkscape:pageopacity="0.0"
     inkscape:pageshadow="2"
     inkscape:zoom="0.49497475"
     inkscape:cx="664.88489"
     inkscape:cy="522.61484"
     inkscape:document-units="px"
     inkscape:current-layer="svg2"
     showgrid="false"
     units="px"
     inkscape:snap-bbox="false"
     inkscape:bbox-paths="false"
     inkscape:bbox-nodes="false"
     inkscape:snap-page="true"
     inkscape:snap-others="false"
     inkscape:snap-nodes="false"
     inkscape:window-width="1364"
     inkscape:window-height="747"
     inkscape:window-x="0"
     inkscape:window-y="19"
     inkscape:window-maximized="1"
     showguides="false" />
  <metadata
     id="metadata7">
    <rdf:RDF>
      <cc:Work
         rdf:about="">
        <dc:format>image/svg+xml</dc:format>
        <dc:type
           rdf:resource="http://purl.org/dc/dcmitype/StillImage" />
        <dc:title />
      </cc:Work>
    </rdf:RDF>
  </metadata>
  <rect
     style="fill:#000000;fill-opacity:1;fill-rule:evenodd;stroke:#000000;stroke-width:6.94619083px;stroke-linecap:butt;stroke-linejoin:miter;stroke-opacity:1"
     id="rect3642"
     width="1359.0538"
     height="761.05383"
     x="4.3705158"
     y="3.6315422" />
  <g
     inkscape:label="Layer 1"
     inkscape:groupmode="layer"
     id="layer1"
     transform="translate(0,-484.3622)" />
  <path
     id="path3467"
     d="m 1192.7502,40.085239 c -2.0232,0 -3.6648,0.658215 -4.9441,2.005066 -1.2791,1.347679 -1.9226,3.221826 -1.9226,5.603224 0,1.259171 0.2754,2.441777 0.8239,3.57069 0.5487,1.128907 1.3534,2.039604 2.4172,2.691743 1.0637,0.652114 2.2745,0.961341 3.6256,0.961341 1.2466,0 2.4111,-0.288617 3.4882,-0.878943 1.0772,-0.590351 1.9117,-1.460399 2.4995,-2.609345 0.587,-1.148115 0.879,-2.445733 0.879,-3.900286 0,-1.434508 -0.2937,-2.7131 -0.8515,-3.845347 -0.5586,-1.132245 -1.3533,-2.031352 -2.4171,-2.664283 -1.0638,-0.632921 -2.273,-0.93386 -3.5981,-0.93386 z m 0.027,1.620521 c 0.9461,0 1.7937,0.234866 2.5544,0.714151 0.7607,0.479282 1.3355,1.161652 1.7304,2.032541 0.395,0.870889 0.6043,1.881493 0.6043,3.048808 0,1.846167 -0.4773,3.280325 -1.4008,4.28482 -0.9243,1.00449 -2.0863,1.51068 -3.5157,1.51068 -1.4029,0 -2.5857,-0.48791 -3.5158,-1.483207 -0.9302,-0.995309 -1.4008,-2.364121 -1.4008,-4.092565 0,-2.15844 0.4863,-3.71922 1.4557,-4.641869 0.9694,-0.922674 2.144,-1.373359 3.4883,-1.373359 z m 70.9741,6.344834 c -1.2641,0 -2.4361,0.301126 -3.4882,0.878947 -1.0529,0.577813 -1.8477,1.413051 -2.4171,2.526937 -0.5703,1.113045 -0.8515,2.404818 -0.8515,3.900294 0,1.37103 0.2365,2.67793 0.7416,3.8728 0.5052,1.19487 1.2571,2.08877 2.2248,2.71923 0.9678,0.6304 2.2183,0.96133 3.763,0.96133 1.4921,0 2.7575,-0.41609 3.7904,-1.23601 1.0321,-0.81915 1.745,-2.00923 2.1424,-3.57068 l -1.9226,-0.49441 c -0.2606,1.20653 -0.7476,2.13297 -1.4833,2.74666 -0.7356,0.61376 -1.6304,0.9064 -2.6917,0.9064 -0.8717,0 -1.6964,-0.20913 -2.4446,-0.65917 -0.7481,-0.45008 -1.2939,-1.14988 -1.6479,-2.06 -0.3558,-0.91017 -0.5219,-1.96623 -0.5219,-3.18615 0,-0.946056 0.1397,-1.855755 0.4394,-2.74669 0.2998,-0.890928 0.8258,-1.613858 1.5656,-2.142412 0.7398,-0.528533 1.6462,-0.796539 2.7467,-0.796539 0.9569,0 1.7576,0.238206 2.3896,0.714141 0.6305,0.475942 1.1243,1.236002 1.4558,2.279739 l 1.8677,-0.439464 c -0.3841,-1.325964 -1.0822,-2.343991 -2.06,-3.076281 -0.9769,-0.731448 -2.1645,-1.098672 -3.5982,-1.098672 z m 8.3225,0.247204 0,14.365154 1.8952,0 0,-6.78432 7.416,0 0,6.78432 1.9227,0 0,-14.365154 -1.9227,0 0,5.905362 -7.416,0 0,-5.905362 -1.8952,0 z m 15.1067,7.306154 c -0.8525,0 -1.5688,0.25482 -2.1424,0.74159 -0.572,0.48766 -0.9375,1.17326 -1.0986,2.06002 l 1.3183,0.21973 c 0.098,-0.64709 0.3161,-1.1309 0.6593,-1.45573 0.3431,-0.324 0.7757,-0.46691 1.2909,-0.46691 0.5202,0 0.9337,0.14962 1.2635,0.46691 0.3281,0.31645 0.4944,0.72505 0.4944,1.20855 0,0.61038 -0.2366,1.05279 -0.6867,1.34587 -0.4517,0.29226 -0.9471,0.43948 -1.5107,0.43948 -0.054,0 -0.1312,-0.0173 -0.2197,-0.0273 l -0.1373,1.18108 c 0.3732,-0.0977 0.6825,-0.16481 0.9338,-0.16481 0.6146,0 1.1124,0.21101 1.5107,0.60427 0.3983,0.39415 0.6043,0.8762 0.6043,1.48324 0,0.63539 -0.2034,1.19054 -0.6318,1.62052 -0.4275,0.43001 -0.9635,0.63172 -1.593,0.63172 -0.5294,0 -0.9802,-0.16374 -1.3459,-0.49439 -0.3641,-0.32978 -0.6154,-0.87237 -0.7691,-1.62055 l -1.3184,0.1923 c 0.088,0.89341 0.4449,1.60708 1.0712,2.16987 0.6246,0.56275 1.4161,0.85147 2.3622,0.85147 1.0487,0 1.8955,-0.33499 2.5818,-0.98883 0.6864,-0.65292 1.0438,-1.45025 1.0438,-2.38962 0,-0.69466 -0.167,-1.26865 -0.5219,-1.7304 -0.354,-0.46341 -0.8744,-0.75943 -1.5107,-0.90638 0.4893,-0.22544 0.8765,-0.52562 1.1261,-0.90639 0.2497,-0.38078 0.3572,-0.79926 0.3572,-1.2635 0,-0.48843 -0.1224,-0.96657 -0.3846,-1.40081 -0.2622,-0.4342 -0.6318,-0.76489 -1.1261,-1.01624 -0.4935,-0.25218 -1.0319,-0.38455 -1.6206,-0.38455 z m -97.6169,1.20856 0,24.08837 -17.3315,10.02539 0.714,1.23598 19.7761,-11.42618 27.9887,16.15042 0,32.300988 -19.8035,11.45361 0.7141,1.20857 19.8585,-11.48112 22.9622,7.47096 0.4669,-1.34587 -22.7425,-7.41602 0,-32.108678 22.7425,-7.38858 -0.4669,-1.34587 -22.9622,7.47096 -25.5441,-14.74963 0,-24.1433 -1.4008,0 0,23.31928 -1.8129,-1.04375 -1.7578,1.01627 0,-23.2918 -1.4008,0 z m 69.8755,7.14137 -4.2024,12.96429 1.3183,0.46696 4.2299,-13.01928 -1.3458,-0.41197 z m -125.6331,9.28375 c -1.2642,0 -2.4362,0.27365 -3.4883,0.85149 -1.0529,0.57779 -1.8468,1.44053 -2.4171,2.55437 -0.5703,1.11307 -0.8789,2.40484 -0.8789,3.90028 0,1.37109 0.2639,2.65049 0.7691,3.84536 0.5052,1.19487 1.2296,2.11624 2.1973,2.74672 0.9678,0.63041 2.2457,0.93383 3.7904,0.93383 1.4922,0 2.7576,-0.41601 3.7905,-1.23601 1.032,-0.81908 1.7449,-2.00923 2.1424,-3.57067 l -1.9227,-0.46691 c -0.2605,1.20735 -0.7476,2.10546 -1.4832,2.71921 -0.7357,0.6137 -1.6305,0.93384 -2.6918,0.93384 -0.8725,0 -1.6955,-0.23662 -2.4445,-0.68666 -0.749,-0.45008 -1.2931,-1.1224 -1.648,-2.03257 -0.3549,-0.91011 -0.5219,-1.96617 -0.5219,-3.18614 0,-0.94601 0.1397,-1.88319 0.4395,-2.7741 0.2997,-0.89096 0.8266,-1.58643 1.5656,-2.11493 0.7398,-0.52858 1.6462,-0.79659 2.7467,-0.79659 0.9569,0 1.7575,0.2382 2.3896,0.71414 0.6312,0.47595 1.1234,1.23601 1.4557,2.27975 l 1.8678,-0.43946 c -0.3841,-1.32598 -1.0823,-2.34398 -2.06,-3.07627 -0.977,-0.73147 -2.1645,-1.09868 -3.5982,-1.09868 z m -26.9449,0.24722 0,14.33764 1.9227,0 0,-6.75681 7.416,0 0,6.75681 1.8952,0 0,-14.33764 -1.8952,0 0,5.87786 -7.416,0 0,-5.87786 -1.9227,0 z m 140.4102,6.28991 0,14.36507 1.8403,0 0,-11.26137 7.4984,11.26137 1.9776,0 0,-14.36507 -1.8403,0 0,11.26138 -7.5259,-11.26138 -1.9501,0 z m -124.9464,1.01625 c -0.8525,0 -1.5696,0.22732 -2.1424,0.71414 -0.5728,0.48761 -0.9375,1.1732 -1.0987,2.06003 l 1.3184,0.24716 c 0.098,-0.6471 0.3152,-1.13089 0.6592,-1.45573 0.3432,-0.324 0.7758,-0.4944 1.291,-0.4944 0.5202,0 0.9345,0.14962 1.2634,0.4669 0.329,0.31652 0.4945,0.72512 0.4945,1.20856 0,0.61038 -0.2358,1.08028 -0.6867,1.37336 -0.4509,0.29225 -0.9479,0.41198 -1.5107,0.41198 -0.054,0 -0.1312,0.01 -0.2197,0 l -0.1374,1.15363 c 0.3733,-0.0981 0.6826,-0.13738 0.9339,-0.13738 0.6146,0 1.1124,0.18353 1.5107,0.57685 0.3991,0.39408 0.6042,0.90363 0.6042,1.51067 0,0.63539 -0.2033,1.16303 -0.6317,1.59303 -0.4283,0.43006 -0.9643,0.65921 -1.5931,0.65921 -0.5302,0 -0.9809,-0.16375 -1.3458,-0.4944 -0.3641,-0.32982 -0.6163,-0.87236 -0.7691,-1.62055 l -1.3184,0.16482 c 0.089,0.89429 0.4441,1.63539 1.0712,2.19738 0.6246,0.56275 1.4161,0.85145 2.3621,0.85145 1.0488,0 1.8955,-0.33499 2.5819,-0.98882 0.6864,-0.65293 1.0438,-1.45026 1.0438,-2.38961 0,-0.69474 -0.1679,-1.26866 -0.5219,-1.73041 -0.3549,-0.46341 -0.847,-0.75943 -1.4832,-0.9064 0.4893,-0.22542 0.849,-0.5531 1.0986,-0.93387 0.2497,-0.38079 0.3571,-0.7992 0.3571,-1.26343 0,-0.48851 -0.1232,-0.93832 -0.3845,-1.37337 -0.263,-0.43422 -0.6318,-0.7924 -1.1261,-1.04375 -0.4944,-0.25219 -1.0328,-0.35705 -1.6206,-0.35705 z m 21.5065,3.18613 -0.7141,1.2635 11.948,6.89413 0.7141,-1.26344 -11.948,-6.89419 z m 14.5299,6.04267 0,14.337718 1.8128,0 0,-11.261448 7.5259,11.261448 1.9501,0 0,-14.337718 -1.8402,0 0,11.261388 -7.4984,-11.261388 -1.9502,0 z m 101.9567,5.10884 -1.181,0.85147 12.4149,17.056868 -13.0741,17.96326 1.181,0.82402 13.651,-18.78728 -12.9918,-17.908338 z m -34.6081,4.971508 0,25.87368 1.4283,0 0,-25.87368 -1.4283,0 z m -62.3771,6.09765 0,20.10563 -22.0833,12.74462 0.7142,1.26343 21.3691,-12.33258 0,2.06003 1.7579,1.01624 -21.3417,12.30514 0.7141,1.23599 22.0558,-12.71711 17.2767,9.91553 0.7141,-1.20857 -19.7486,-11.39868 0,-22.98967 -1.4283,0 z m 102.3687,6.42721 -11.2339,15.43634 1.1811,0.85143 11.179,-15.46376 -1.1262,-0.82401 z m -18.4302,20.76485 0,14.3377 1.8403,0 0,-11.26143 7.4984,11.26143 1.9776,0 0,-14.3377 -1.8402,0 0,11.26138 -7.5259,-11.26138 -1.9502,0 z m -111.8723,6.04273 c -2.0231,0 -3.6922,0.68569 -4.9714,2.03251 -1.2792,1.34768 -1.8952,3.22182 -1.8952,5.60326 0,1.25914 0.2754,2.44172 0.824,3.57067 0.5485,1.12889 1.3533,2.01214 2.417,2.66429 1.0638,0.6521 2.2472,0.98876 3.5982,0.98876 1.2466,0 2.4111,-0.28855 3.4883,-0.87889 1.0771,-0.59039 1.9116,-1.46043 2.4994,-2.60935 0.587,-1.14816 0.879,-2.47323 0.879,-3.92778 0,-1.43453 -0.2662,-2.71309 -0.824,-3.84536 -0.5586,-1.13222 -1.3808,-2.00389 -2.4446,-2.63679 -1.0637,-0.63289 -2.2455,-0.96132 -3.5707,-0.96132 z m 51.6651,0.30211 0,14.33764 1.8403,0 0,-11.26137 7.5259,11.26137 1.9501,0 0,-14.33764 -1.8403,0 0,11.26137 -7.5259,-11.26137 -1.9501,0 z m -52.1594,1.34586 c 0.1622,-0.0143 0.3263,0 0.4943,0 0.9461,0 1.7938,0.23487 2.5545,0.71416 0.7606,0.47927 1.3354,1.16163 1.7304,2.03256 0.3949,0.87088 0.6042,1.88149 0.6042,3.04878 0,1.8462 -0.4498,3.28037 -1.3733,4.28481 -0.9243,1.00452 -2.1137,1.48324 -3.5432,1.48324 -1.4028,0 -2.5581,-0.48792 -3.4883,-1.48324 -0.9302,-0.99529 -1.4008,-2.36408 -1.4008,-4.09251 0,-2.15851 0.4863,-3.69178 1.4557,-4.61444 0.8483,-0.80733 1.8311,-1.27233 2.9665,-1.37336 z m 57.1034,13.21152 0,16.37022 1.4283,0 0,-16.37022 -1.4283,0 z m 1.3184,18.29286 c -1.2642,0 -2.4362,0.30117 -3.4883,0.87896 -1.0529,0.57786 -1.8742,1.41308 -2.4445,2.52698 -0.5703,1.11302 -0.8515,2.43227 -0.8515,3.92773 0,1.37102 0.2639,2.65047 0.7691,3.84535 0.5052,1.19487 1.2296,2.08876 2.1973,2.71923 0.9677,0.6304 2.2182,0.96132 3.763,0.96132 1.4921,0 2.7575,-0.41607 3.7904,-1.23601 1.032,-0.81915 1.7724,-2.00923 2.1699,-3.57067 l -1.9227,-0.49441 c -0.2606,1.20736 -0.7476,2.13298 -1.4832,2.74666 -0.7356,0.61376 -1.6305,0.90639 -2.6917,0.90639 -0.8726,0 -1.6957,-0.20911 -2.4446,-0.65915 -0.749,-0.45009 -1.2932,-1.12239 -1.648,-2.03258 -0.3549,-0.91011 -0.5219,-1.99366 -0.5219,-3.21364 0,-0.94601 0.1397,-1.85568 0.4395,-2.74666 0.2997,-0.8909 0.8267,-1.6138 1.5656,-2.14238 0.7398,-0.52855 1.6461,-0.76908 2.7467,-0.76908 0.9568,0 1.7575,0.23819 2.3896,0.71415 0.6312,0.47594 1.1234,1.236 1.4557,2.27976 l 1.8403,-0.43949 c -0.3841,-1.32594 -1.0548,-2.37147 -2.0325,-3.10376 -0.977,-0.73146 -2.1645,-1.0987 -3.5982,-1.0987 z m 8.295,0.24724 0,14.36515 1.9226,0 0,-6.75689 7.4161,0 0,6.75689 1.8952,0 0,-14.36515 -1.8952,0 0,5.90537 -7.4161,0 0,-5.90537 -1.9226,0 z m 15.1067,7.30616 c -0.8534,0 -1.5421,0.25481 -2.1149,0.74159 -0.5728,0.48767 -0.9651,1.17326 -1.1262,2.06002 l 1.3184,0.21972 c 0.098,-0.64709 0.3161,-1.13089 0.6592,-1.45573 0.3441,-0.324 0.7757,-0.46691 1.2909,-0.46691 0.5203,0 0.962,0.15047 1.291,0.46691 0.329,0.31645 0.4944,0.72505 0.4944,1.20856 0,0.61038 -0.2358,1.05361 -0.6867,1.34587 -0.4508,0.29226 -0.9478,0.43948 -1.5106,0.43948 -0.054,0 -0.1321,0.01 -0.2198,0 l -0.1373,1.15357 c 0.3732,-0.0977 0.6825,-0.16482 0.9339,-0.16482 0.6145,0 1.1123,0.21103 1.5106,0.60428 0.3991,0.39415 0.6043,0.90363 0.6043,1.51067 0,0.63546 -0.23,1.1631 -0.6592,1.5931 -0.4267,0.43 -0.9368,0.63172 -1.5656,0.63172 -0.5294,0 -0.981,-0.16376 -1.3459,-0.49441 -0.3641,-0.32983 -0.6162,-0.87236 -0.7691,-1.62055 l -1.3183,0.1923 c 0.088,0.89425 0.4441,1.6354 1.0712,2.19733 0.6245,0.56281 1.3886,0.82401 2.3347,0.82401 1.0487,0 1.9229,-0.30755 2.6093,-0.96132 0.6855,-0.65299 1.0437,-1.45026 1.0437,-2.38962 0,-0.69473 -0.1953,-1.29616 -0.5493,-1.7579 -0.3549,-0.4634 -0.847,-0.75943 -1.4832,-0.90639 0.4893,-0.22543 0.8765,-0.52561 1.1261,-0.90639 0.2497,-0.38077 0.3571,-0.79925 0.3571,-1.26348 0,-0.48844 -0.1232,-0.96576 -0.3845,-1.40081 -0.2623,-0.43419 -0.6319,-0.76497 -1.1262,-1.01625 -0.4943,-0.25218 -1.0602,-0.38455 -1.648,-0.38455 z"
     inkscape:connector-curvature="0"
     style="fill:#999999;fill-opacity:1" />
  <g
     id="layer1-1"
     transform="matrix(0.58549719,0,0,0.58549719,-176.13724,-184.04399)"
     style="fill:#999999;fill-opacity:1">
    <path
       style="fill:#999999;fill-opacity:1"
       id="path2453"
       d="m 400.7626,1592.0057 c -0.77514,-0.4726 -1.73987,-1.5524 -2.14384,-2.3996 -0.63843,-1.3388 -0.65183,-1.5925 -0.1024,-1.94 1.07308,-0.6787 1.58586,-0.4643 2.15067,0.8993 0.64098,1.5474 1.59709,2.1432 3.43985,2.1432 2.54501,0 4.25003,-2.9078 3.0356,-5.177 -0.51617,-0.9645 -3.0321,-1.8705 -4.07875,-1.4689 -0.59654,0.2289 -0.72167,0.089 -0.60584,-0.6791 0.10289,-0.6819 0.64339,-1.1378 1.83054,-1.5439 2.56093,-0.8762 3.16893,-2.4751 1.55494,-4.0891 -1.60739,-1.6073 -4.90475,-0.6193 -5.67838,1.7016 -0.12701,0.381 -0.51583,0.4696 -1.16169,0.2646 -1.2265,-0.3893 -0.9341,-1.6479 0.79674,-3.4295 1.71645,-1.7668 4.79498,-2.0475 6.87389,-0.6268 2.3846,1.6295 2.82754,4.6409 0.92256,6.272 -0.78816,0.6748 -0.76658,0.7431 0.65972,2.0883 4.55166,4.2927 -2.03608,11.3124 -7.49361,7.9849 z m 19.19791,-6.6742 c -2.72086,-0.9703 -4.14233,-2.3998 -5.82033,-5.8531 -1.0008,-2.0597 -1.15538,-2.9215 -1.16215,-6.479 -0.009,-4.536 0.88006,-7.2612 3.14685,-9.65 2.57737,-2.7162 7.36393,-3.947 11.25565,-2.8943 2.25599,0.6102 4.97102,3.0519 5.88211,5.2898 l 0.65141,1.6001 -1.61733,0.4471 c -0.88953,0.2458 -1.6667,0.3033 -1.72703,0.1276 -0.43843,-1.2767 -2.05753,-3.276 -3.23382,-3.9932 -3.12455,-1.9051 -7.90916,-0.4323 -9.83037,3.0259 -0.93964,1.6913 -1.07983,2.4764 -1.07983,6.047 0,3.5706 0.14019,4.3557 1.07983,6.047 1.44239,2.5963 4.11111,4.0194 7.05105,3.76 2.59709,-0.2292 4.08808,-1.2967 5.47494,-3.92 1.03953,-1.9663 1.13625,-2.0322 2.59159,-1.7666 0.83146,0.1518 1.57387,0.3369 1.64979,0.4115 0.45711,0.4487 -2.03508,4.8011 -3.43551,5.9998 -2.76304,2.3651 -7.22343,3.1034 -10.87685,1.8004 z m -45.64809,-12.3321 0,-12.526 1.72772,0 1.72772,0 0,5.1832 0,5.1831 6.47897,0 6.47896,0 0,-5.1831 0,-5.1832 1.72772,0 1.72772,0 0,12.526 0,12.526 -1.72772,0 -1.72772,0 0,-5.8311 0,-5.831 -6.47896,0 -6.47897,0 0,5.831 0,5.8311 -1.72772,0 -1.72772,0 0,-12.526 z m 550.81423,-7.7734 c -0.77514,-0.4726 -1.73986,-1.5524 -2.14389,-2.3996 -0.63843,-1.3388 -0.65182,-1.5925 -0.10241,-1.94 1.07309,-0.6787 1.58588,-0.4643 2.15067,0.8993 0.64103,1.5474 1.59715,2.1432 3.4399,2.1432 2.54502,0 4.25002,-2.9078 3.03561,-5.177 -0.5162,-0.9645 -3.03211,-1.8706 -4.07881,-1.4689 -0.5965,0.2289 -0.72163,0.089 -0.60583,-0.6791 0.10289,-0.6819 0.64341,-1.1378 1.83057,-1.5439 2.56092,-0.8762 3.1689,-2.4751 1.55491,-4.0891 -1.60735,-1.6074 -4.90471,-0.6193 -5.67838,1.7016 -0.12695,0.381 -0.51581,0.4696 -1.16168,0.2646 -1.22651,-0.3893 -0.93405,-1.6479 0.79674,-3.4295 1.71649,-1.7668 4.79495,-2.0475 6.87388,-0.6268 2.3846,1.6295 2.82755,4.6409 0.92256,6.272 -0.78815,0.6748 -0.76655,0.7431 0.65973,2.0883 4.55164,4.2927 -2.03608,11.3124 -7.49357,7.9849 z m -440.97715,-6.648 c -2.75023,-0.8991 -5.10893,-3.0082 -6.47476,-5.7895 -1.06832,-2.1756 -1.21068,-2.948 -1.21068,-6.5688 0,-3.6245 0.14181,-4.3921 1.21526,-6.5781 2.59917,-5.2931 7.99186,-7.5165 13.9319,-5.7443 4.57706,1.3655 7.39644,5.3668 7.8311,11.114 0.6026,7.9677 -3.70116,13.5675 -10.7564,13.9957 -1.59574,0.097 -3.47018,-0.08 -4.53642,-0.429 z m 8.39735,-3.9905 c 2.08927,-1.6655 3.164,-3.8624 3.454,-7.0605 0.4446,-4.9031 -1.38024,-8.862 -4.801,-10.4154 -4.46531,-2.0278 -9.46152,0.2533 -10.85857,4.9577 -2.30127,7.7492 1.54808,14.3871 8.10223,13.9717 1.96179,-0.1244 2.81523,-0.4267 4.10334,-1.4535 z m 387.8519,3.9643 c -2.72087,-0.9703 -4.14235,-2.3999 -5.82032,-5.8531 -1.00082,-2.0597 -1.15541,-2.9215 -1.16215,-6.479 -0.009,-4.536 0.88006,-7.2612 3.14683,-9.65 2.57738,-2.7162 7.36395,-3.947 11.25565,-2.8943 2.25606,0.6102 4.97104,3.0519 5.88216,5.2898 l 0.65139,1.6001 -1.61736,0.4471 c -0.88952,0.2458 -1.66669,0.3033 -1.72699,0.1276 -0.43845,-1.2767 -2.0575,-3.276 -3.23387,-3.9932 -3.12454,-1.9051 -7.90908,-0.4324 -9.83035,3.0259 -0.93963,1.6913 -1.07983,2.4763 -1.07983,6.047 0,3.5706 0.1402,4.3557 1.07983,6.047 1.44243,2.5963 4.11111,4.0194 7.05105,3.76 2.59707,-0.2292 4.0881,-1.2967 5.47494,-3.9201 1.03953,-1.9662 1.13624,-2.0321 2.59159,-1.7665 0.83146,0.1518 1.57391,0.3369 1.6498,0.4115 0.45711,0.4487 -2.03509,4.8011 -3.43549,5.9998 -2.76302,2.3651 -7.22344,3.1034 -10.87688,1.8004 z m 18.27767,-12.3321 0,-12.526 1.72772,0 1.72772,0 0,5.1832 0,5.1831 6.47897,0 6.47896,0 0,-5.1831 0,-5.1832 1.72772,0 1.72772,0 0,12.526 0,12.526 -1.72772,0 -1.72772,0 0,-5.8311 0,-5.831 -6.47896,0 -6.47897,0 0,5.831 0,5.8311 -1.72772,0 -1.72772,0 0,-12.526 z m -471.34449,11.3643 c -0.41574,-0.1086 -0.75588,-0.2837 -0.75588,-0.3892 0,-0.1534 3.19333,-12.134 9.90658,-37.1668 0.36294,-1.3534 0.36125,-1.3551 -0.99211,-0.9928 -0.74563,0.1996 -9.35926,2.5104 -19.14142,5.1351 -9.78215,2.6247 -17.97156,4.7722 -18.1987,4.7722 -0.44491,0 -1.04278,-1.7746 -0.70998,-2.1074 0.11076,-0.1108 9.05583,-2.5769 19.87791,-5.4802 10.82208,-2.9034 19.76339,-5.3657 19.86957,-5.4719 0.10618,-0.1062 0.14297,-12.1966 0.0818,-26.8676 l -0.11131,-26.6746 -15.11758,11.0363 c -13.63788,9.9561 -15.17281,10.9642 -15.68184,10.3005 -1.27891,-1.6676 -4.87715,-8.3086 -4.67713,-8.6323 0.11877,-0.1922 7.87343,-3.7349 17.23258,-7.8727 l 17.01662,-7.5232 -24.00638,-13.8566 -24.00638,-13.8565 0,-29.2924 0,-29.2923 24.72804,-14.2725 24.72804,-14.2726 0,-19.3702 0,-19.3702 1.29139,0 1.29139,0 0.11238,19.4748 0.11239,19.4747 24.49933,14.1079 24.49934,14.1079 0.12072,28.6722 0.12072,28.6722 23.7562,13.762 c 14.84071,8.5973 24.08039,13.7045 24.62005,13.6086 0.47513,-0.084 11.45697,-6.28 24.4041,-13.7681 l 23.54023,-13.6146 0.11234,-19.7036 0.11234,-19.7036 1.07111,0 1.07111,0 0.11234,19.7004 0.11234,19.7004 24.72804,14.262 24.72802,14.262 0,28.5846 0,28.5847 22.74327,13.1488 c 12.50876,7.2319 23.37688,13.4852 24.15129,13.8962 l 1.40809,0.7473 24.67163,-14.2615 c 13.56941,-7.8438 24.8108,-14.1845 24.98085,-14.0903 0.17005,0.094 11.31581,6.5211 24.76834,14.2822 l 24.45925,14.111 24.72661,-14.2898 24.7267,-14.2898 7.18107,4.1334 c 24.59638,14.1574 30.01971,17.3497 30.15253,17.7482 0.0817,0.2451 -0.0979,0.7828 -0.39919,1.1948 -0.4985,0.6817 -2.14052,-0.171 -18.25496,-9.4801 -9.73891,-5.626 -18.00054,-10.3061 -18.35909,-10.4002 -0.35863,-0.094 -11.60611,6.1563 -24.99445,13.8898 -13.38839,7.7336 -24.53406,14.061 -24.76821,14.061 -0.23419,0 -11.3752,-6.317 -24.7578,-14.0377 -13.38264,-7.7208 -24.52123,-14.0378 -24.7524,-14.0378 -0.23117,0 -11.37127,6.3251 -24.75581,14.0557 -13.3845,7.7307 -24.63462,13.9794 -25.0002,13.8861 -0.36563,-0.093 -11.49018,-6.4184 -24.72126,-14.0557 -13.23108,-7.6374 -24.24527,-13.8861 -24.47597,-13.8861 -0.23069,0 -11.44792,6.3656 -24.92719,14.1458 -13.47926,7.7801 -24.61555,14.0957 -24.74731,14.0346 -0.13177,-0.061 -11.1815,-6.4266 -24.55496,-14.1457 -13.37346,-7.7191 -24.50635,-14.0347 -24.73974,-14.0347 -0.2334,0 -8.14526,4.46 -17.58191,9.9111 -9.43665,5.4511 -17.4495,10.021 -17.80633,10.1555 -0.56164,0.2116 -2.05384,-1.3314 -1.64878,-1.7049 0.0759,-0.07 8.15563,-4.7474 17.95506,-10.3945 l 17.81715,-10.2673 0,-27.9128 0,-27.9127 -23.84947,-13.7703 c -13.11722,-7.5737 -24.0691,-13.7704 -24.33752,-13.7704 -0.26843,0 -11.20829,6.1843 -24.31082,13.7428 l -23.82277,13.7427 0,27.9537 0,27.9538 17.57952,10.1422 c 9.66874,5.5782 17.64048,10.3251 17.71499,10.5486 0.0745,0.2236 -0.11588,0.7501 -0.42307,1.1703 -0.51301,0.7016 -1.93452,-0.03 -17.43731,-8.9699 -9.28332,-5.3536 -17.15319,-9.8391 -17.48861,-9.9678 -0.47726,-0.1831 -1.7349,3.9924 -5.7848,19.2065 -2.84622,10.6922 -5.36932,19.4199 -5.60688,19.3947 -0.23757,-0.025 -0.77208,-0.1347 -1.18781,-0.2434 z m 184.00253,-27.5503 23.86415,-13.742 0,-27.9423 0,-27.9423 -23.8396,-13.7486 c -13.1118,-7.5618 -24.05979,-13.7487 -24.32889,-13.7487 -0.26908,0 -11.21338,6.1926 -24.32066,13.7612 l -23.8314,13.7612 0,27.9266 0,27.9265 24.03901,13.8715 c 13.22146,7.6294 24.15471,13.8147 24.29611,13.7452 0.14141,-0.07 10.99598,-6.3103 24.12128,-13.8683 z m -24.27626,5.5734 c -0.66448,-1.0142 -0.63784,-1.0437 2.67801,-2.9629 1.84204,-1.0661 11.02674,-6.3897 20.41044,-11.83 14.88963,-8.6325 17.13001,-9.8063 17.60116,-9.2218 0.29695,0.3684 0.53991,0.8831 0.53991,1.1438 0,0.2606 -5.87765,3.8679 -13.06148,8.0161 -7.18383,4.1482 -16.30947,9.418 -20.27919,11.7107 l -7.21769,4.1684 -0.67116,-1.0243 z m -42.13311,-47.2661 0,-23.7562 1.2958,0 1.29579,0 0,23.7562 0,23.7562 -1.29579,0 -1.2958,0 0,-23.7562 z m 65.40905,-32.3387 c -9.28057,-5.376 -18.46452,-10.7004 -20.40878,-11.8321 -3.2576,-1.896 -3.49295,-2.1248 -2.99912,-2.9155 0.29473,-0.472 0.71533,-0.8581 0.93466,-0.8581 0.7844,0 40.42682,23.0994 40.42682,23.5564 0,0.2567 -0.24296,0.7721 -0.53991,1.1453 -0.47349,0.5952 -2.61489,-0.5233 -17.41367,-9.096 z m -147.04397,-11.8438 23.54023,-13.6283 0.1111,-27.8105 0.11111,-27.8106 -23.65304,-13.6616 c -13.00918,-7.5139 -23.95913,-13.779 -24.33325,-13.9226 -0.42912,-0.1646 -9.55711,4.8646 -24.72947,13.6252 l -24.04926,13.8863 0.11111,27.8846 0.11112,27.8847 23.7562,13.7525 c 15.05642,8.7163 24.07255,13.6932 24.62006,13.5906 0.47512,-0.089 11.45696,-6.2947 24.40409,-13.7903 z m -4.73941,-75.8226 c -11.02683,-6.3747 -20.11075,-11.7763 -20.1865,-12.0035 -0.0758,-0.2272 0.11113,-0.7535 0.41528,-1.1694 0.50529,-0.6911 2.30962,0.2573 20.91383,10.9925 19.78169,11.4147 20.34771,11.7777 19.90019,12.7598 -0.25334,0.5561 -0.58063,1.011 -0.72732,1.011 -0.14669,0 -9.28866,-5.2157 -20.31548,-11.5904 z m -98.38966,183.0683 c -0.77514,-0.4726 -1.73987,-1.5524 -2.14384,-2.3996 -0.63843,-1.3388 -0.65183,-1.5925 -0.1024,-1.94 1.07308,-0.6787 1.58586,-0.4643 2.15068,0.8993 0.64097,1.5474 1.59709,2.1432 3.43984,2.1432 2.54502,0 4.25004,-2.9078 3.0356,-5.177 -0.51617,-0.9645 -3.0321,-1.8705 -4.07875,-1.4689 -0.59654,0.2289 -0.72167,0.089 -0.60583,-0.6791 0.10288,-0.6819 0.64339,-1.1378 1.83053,-1.5439 2.56094,-0.8762 3.16893,-2.4751 1.55494,-4.0891 -1.60738,-1.6073 -4.90475,-0.6193 -5.67838,1.7016 -0.127,0.381 -0.51583,0.4696 -1.16169,0.2646 -1.2265,-0.3893 -0.9341,-1.6479 0.79674,-3.4295 1.71646,-1.7668 4.79498,-2.0475 6.87389,-0.6268 2.3846,1.6295 2.82754,4.6409 0.92256,6.272 -0.78815,0.6748 -0.76658,0.7431 0.65973,2.0883 4.55165,4.2927 -2.03609,11.3124 -7.49362,7.9849 z m 19.62984,-6.6742 c -2.72086,-0.9703 -4.14233,-2.3998 -5.82033,-5.8531 -1.0008,-2.0597 -1.15538,-2.9215 -1.16215,-6.479 -0.009,-4.536 0.88007,-7.2612 3.14685,-9.65 2.57737,-2.7162 7.36393,-3.947 11.25565,-2.8943 2.256,0.6102 4.97103,3.0519 5.88211,5.2898 l 0.65142,1.6001 -1.61734,0.4471 c -0.88953,0.2458 -1.66669,0.3033 -1.72702,0.1276 -0.43843,-1.2767 -2.05753,-3.276 -3.23382,-3.9932 -3.12456,-1.9051 -7.90916,-0.4323 -9.83038,3.0259 -0.93964,1.6913 -1.07982,2.4764 -1.07982,6.047 0,3.5706 0.14018,4.3557 1.07982,6.047 1.4424,2.5963 4.11111,4.0194 7.05105,3.76 2.59709,-0.2292 4.08808,-1.2967 5.47495,-3.92 1.03952,-1.9663 1.13624,-2.0322 2.59158,-1.7666 0.83147,0.1518 1.57388,0.3369 1.64979,0.4115 0.45711,0.4487 -2.03508,4.8011 -3.43551,5.9998 -2.76304,2.3651 -7.22343,3.1034 -10.87685,1.8004 z m -45.64809,-12.3321 0,-12.526 1.72772,0 1.72773,0 0,5.1832 0,5.1831 6.47896,0 6.47896,0 0,-5.1831 0,-5.1832 1.72772,0 1.72773,0 0,12.526 0,12.526 -1.72773,0 -1.72772,0 0,-5.8311 0,-5.831 -6.47896,0 -6.47896,0 0,5.831 0,5.8311 -1.72773,0 -1.72772,0 0,-12.526 z m 44.92081,-43.1931 0,-12.526 1.72772,0 1.72772,0 0,5.1832 0,5.1832 6.47896,0 6.47897,0 0,-5.1832 0,-5.1832 1.72772,0 1.72772,0 0,12.526 0,12.526 -1.72772,0 -1.72772,0 0,-5.8311 0,-5.831 -6.47897,0 -6.47896,0 0,5.831 0,5.8311 -1.72772,0 -1.72772,0 0,-12.526 z m 114.31137,-61.0786 c -0.52555,-0.8021 -0.56164,-1.1328 -0.15766,-1.4445 1.21,-0.9337 1.54667,-0.9062 2.26153,0.1848 0.71809,1.096 0.71649,1.1743 -0.0353,1.724 -1.0721,0.784 -1.28146,0.737 -2.06856,-0.4643 z m 6.45574,-3.8011 -1.10775,-1.8536 0.96458,-0.7325 c 1.09019,-0.828 1.11754,-0.8094 2.49132,1.6995 1.08718,1.9855 1.082,2.0273 -0.30375,2.4527 -0.77496,0.2379 -1.12789,-0.032 -2.0444,-1.5661 z m 6.56207,-3.6162 -1.54756,-2.7064 0.96238,-0.9041 0.96237,-0.9041 0.4784,0.9789 c 0.26312,0.5385 1.05647,1.9632 1.763,3.166 l 1.28459,2.187 -1.17781,0.4446 c -1.13398,0.428 -1.23539,0.3439 -2.72537,-2.2619 z m 6.49079,-3.7467 c -1.87859,-3.3054 -1.9729,-3.6128 -1.32732,-4.3261 0.38222,-0.4223 0.85776,-0.7136 1.05674,-0.6473 0.19899,0.066 1.30864,1.7717 2.46589,3.7899 2.07996,3.6272 2.09351,3.6753 1.18149,4.1939 -0.50743,0.2885 -1.01978,0.5298 -1.13856,0.5363 -0.11879,0.01 -1.12599,-1.5896 -2.23824,-3.5467 z m 6.41637,-3.8893 -2.51679,-4.4047 0.96711,-0.7831 0.96712,-0.7831 1.6909,2.9335 c 0.93,1.6134 2.16505,3.751 2.74457,4.7502 1.02994,1.7758 1.03469,1.8269 0.21112,2.2677 -0.4634,0.248 -1.0011,0.4449 -1.19489,0.4376 -0.19379,-0.01 -1.4849,-1.9955 -2.86914,-4.4181 z m 8.34786,-9.3904 0,-12.526 1.72772,0 1.72773,0 0,5.1832 0,5.1832 6.47896,0 6.47896,0 0,-5.1832 0,-5.1832 1.72772,0 1.72773,0 0,12.526 0,12.526 -1.72773,0 -1.72772,0 0,-5.8311 0,-5.831 -6.47896,0 -6.47896,0 0,5.831 0,5.8311 -1.72773,0 -1.72772,0 0,-12.526 z m 55.4138,-16.1491 c -2.75023,-0.8991 -5.10893,-3.0082 -6.47476,-5.7896 -1.06832,-2.1755 -1.21068,-2.9479 -1.21068,-6.5687 0,-3.6245 0.14181,-4.3921 1.21526,-6.5782 2.59917,-5.293 7.99186,-7.5164 13.9319,-5.7442 4.57706,1.3655 7.39644,5.3668 7.8311,11.114 0.6026,7.9677 -3.70116,13.5675 -10.7564,13.9957 -1.59574,0.097 -3.47018,-0.08 -4.53642,-0.429 z m 8.39735,-3.9905 c 2.08927,-1.6655 3.164,-3.8624 3.454,-7.0605 0.4446,-4.9031 -1.38024,-8.862 -4.801,-10.4154 -4.46531,-2.0278 -9.46153,0.2533 -10.85857,4.9577 -2.30127,7.7492 1.54808,14.3871 8.10223,13.9717 1.96179,-0.1244 2.81523,-0.4267 4.10334,-1.4535 z m 11.34481,-8.3678 0,-12.526 1.72773,0 1.72772,0 0,5.1832 0,5.1831 6.47896,0 6.47896,0 0,-5.1831 0,-5.1832 1.72773,0 1.72772,0 0,12.526 0,12.526 -1.72772,0 -1.72773,0 0,-5.8311 0,-5.8311 -6.47896,0 -6.47896,0 0,5.8311 0,5.8311 -1.72772,0 -1.72773,0 0,-12.526 z m -122.99788,-66.948 c -0.77514,-0.4726 -1.73987,-1.5524 -2.14384,-2.3995 -0.63843,-1.3388 -0.65183,-1.5925 -0.1024,-1.94 1.07308,-0.6787 1.58586,-0.4643 2.15068,0.8993 0.64097,1.5474 1.59709,2.1431 3.43984,2.1431 2.54501,0 4.25004,-2.9078 3.0356,-5.177 -0.51617,-0.9644 -3.0321,-1.8705 -4.07875,-1.4689 -0.59654,0.2289 -0.72167,0.089 -0.60584,-0.679 0.10289,-0.6819 0.6434,-1.1378 1.83054,-1.544 2.56094,-0.8762 3.16893,-2.475 1.55494,-4.089 -1.60739,-1.6074 -4.90475,-0.6193 -5.67838,1.7016 -0.12701,0.381 -0.51583,0.4695 -1.16169,0.2645 -1.2265,-0.3892 -0.9341,-1.6479 0.79674,-3.4294 1.71645,-1.7668 4.79498,-2.0475 6.87389,-0.6269 2.3846,1.6296 2.82754,4.6409 0.92256,6.272 -0.78815,0.6748 -0.76658,0.7431 0.65973,2.0883 4.55165,4.2928 -2.03609,11.3124 -7.49362,7.9849 z m -44.72785,-6.6741 c -2.72086,-0.9704 -4.14233,-2.3999 -5.82033,-5.8532 -1.0008,-2.0596 -1.15538,-2.9214 -1.16215,-6.479 -0.009,-4.5359 0.88006,-7.2611 3.14685,-9.65 2.57736,-2.7161 7.36393,-3.9469 11.25565,-2.8943 2.25599,0.6103 4.97102,3.0519 5.88211,5.2899 l 0.65141,1.6001 -1.61733,0.447 c -0.88953,0.2459 -1.6667,0.3033 -1.72703,0.1276 -0.43843,-1.2767 -2.05753,-3.2759 -3.23382,-3.9931 -3.12456,-1.9051 -7.90916,-0.4324 -9.83037,3.0258 -0.93964,1.6914 -1.07983,2.4764 -1.07983,6.047 0,3.5707 0.14019,4.3557 1.07983,6.0471 1.44239,2.5963 4.11111,4.0194 7.05105,3.7599 2.59709,-0.2291 4.08808,-1.2967 5.47494,-3.92 1.03953,-1.9663 1.13625,-2.0322 2.59159,-1.7666 0.83146,0.1518 1.57387,0.337 1.64979,0.4115 0.45711,0.4487 -2.03508,4.8012 -3.43552,5.9999 -2.76304,2.365 -7.22342,3.1034 -10.87684,1.8004 z m 18.27767,-12.3322 0,-12.526 1.72772,0 1.72772,0 0,5.1832 0,5.1832 6.47897,0 6.47896,0 0,-5.1832 0,-5.1832 1.72772,0 1.72773,0 0,12.526 0,12.526 -1.72773,0 -1.72772,0 0,-5.831 0,-5.8311 -6.47896,0 -6.47897,0 0,5.8311 0,5.831 -1.72772,0 -1.72772,0 0,-12.526 z"
       inkscape:connector-curvature="0" />
  </g>
  <g
     style="clip-rule:evenodd;fill:#999999;fill-opacity:1;stroke-miterlimit:10"
     id="g3612"
     transform="matrix(0.08295109,0,0,0.08295109,152.35715,98.962672)">
    <g
       id="g3596"
       style="fill:#999999;fill-opacity:1">
      <g
         id="g3598"
         style="fill:#999999;fill-opacity:1">
        <path
           id="path3600"
           d="m 392.36,52.27 0,18.6 L 57.5,264.73 48.69,250.04 392.36,52.27"
           inkscape:connector-curvature="0"
           style="fill:#999999;fill-opacity:1" />
        <path
           id="path3602"
           d="m 647.06,260.64 c 0,-29.09 7.8,-51.87 23.42,-68.33 15.61,-16.46 35.76,-24.69 60.45,-24.69 16.17,0 30.74,3.87 43.72,11.6 12.99,7.73 22.88,18.51 29.69,32.34 6.81,13.83 10.22,29.51 10.22,47.05 0,17.77 -3.59,33.68 -10.76,47.7 -7.16,14.03 -17.32,24.65 -30.46,31.86 -13.14,7.22 -27.32,10.82 -42.53,10.82 -16.49,0 -31.22,-3.98 -44.21,-11.95 -12.98,-7.97 -22.81,-18.85 -29.51,-32.64 -6.69,-13.79 -10.03,-28.38 -10.03,-43.76 z m 23.87,0.36 c 0,21.11 5.68,37.75 17.03,49.9 11.36,12.15 25.6,18.22 42.73,18.22 17.45,0 31.81,-6.13 43.08,-18.4 11.27,-12.27 16.91,-29.68 16.91,-52.23 0,-14.26 -2.41,-26.71 -7.23,-37.35 -4.82,-10.63 -11.87,-18.88 -21.15,-24.73 -9.28,-5.86 -19.7,-8.79 -31.25,-8.79 -16.42,0 -30.54,5.64 -42.37,16.91 -11.83,11.28 -17.75,30.1 -17.75,56.47 z m 0,0"
           inkscape:connector-curvature="0"
           style="fill:#999999;fill-opacity:1" />
        <path
           id="path3604"
           d="m 845.86,345.99 0,-175.24 23.13,0 0,72 91,0 0,-72 23.12,0 0,175.24 -23.12,0 0,-82.62 -91,0 0,82.62 -23.13,0 z m 0,0"
           inkscape:connector-curvature="0"
           style="fill:#999999;fill-opacity:1" />
        <path
           id="path3606"
           d="m 638.12,194.24 -8.81,14.68 -236.95,-138.05 0,-18.6 245.76,141.97"
           inkscape:connector-curvature="0"
           style="fill:#999999;fill-opacity:1" />
      </g>
    </g>
  </g>
  <g
     id="Background-5"
     transform="matrix(0.51794456,0,0,0.51169781,1051.2417,599.00251)"
     style="fill:#999999;stroke:#999999;stroke-opacity:1">
    <g
       clip-path="url(#Clip0-0)"
       id="Group1-7"
       style="fill:#999999;stroke:#999999;stroke-opacity:1">
      <path
         id="path4562"
         transform="translate(45.8935,44.6762)"
         d="M 0,31.4635 0,0 4.26941,0 20.7892,24.7029 20.7892,0 l 3.9905,0 0,31.4635 -4.2694,0 -16.5198,-24.72439 0,24.72439 -3.9905,0 z"
         style="fill:#999999;fill-rule:evenodd;stroke:#999999;stroke-opacity:1"
         inkscape:connector-curvature="0" />
      <path
         id="path4564"
         transform="translate(265.323,44.1182)"
         d="M 0,16.6975 C 0,11.4751 1.40168,7.38656 4.20505,4.43193 7.00841,1.47731 10.627,0 15.0609,0 c 2.9035,0 5.5209,0.693943 7.8523,2.08183 2.3314,1.38788 4.1085,3.32305 5.3314,5.80551 1.2229,2.48246 1.8344,5.29756 1.8344,8.44536 0,3.1907 -0.6437,6.0452 -1.9309,8.5634 -1.2873,2.5182 -3.1109,4.4248 -5.4709,5.7197 -2.36,1.2948 -4.9059,1.9423 -7.6377,1.9423 -2.9607,0 -5.60675,-0.7154 -7.93812,-2.1462 C 4.77001,28.9811 3.0036,27.028 1.80216,24.5527 0.600721,22.0774 0,19.459 0,16.6975 Z m 4.29086,0.0644 c 0,3.7917 1.01908,6.7785 3.05724,8.9605 2.03816,2.182 4.5948,3.273 7.6699,3.273 3.1324,0 5.7104,-1.1018 7.7343,-3.3052 2.0239,-2.2035 3.0358,-5.3298 3.0358,-9.379 0,-2.5611 -0.4327,-4.7968 -1.298,-6.70689 C 23.6248,7.69418 22.359,6.21329 20.6927,5.16165 19.0264,4.11 17.1563,3.58418 15.0824,3.58418 12.136,3.58418 9.60081,4.59648 7.47683,6.62107 5.35285,8.64567 4.29086,12.026 4.29086,16.7619 Z"
         style="fill:#999999;fill-rule:evenodd;stroke:#999999;stroke-opacity:1"
         inkscape:connector-curvature="0" />
      <path
         id="path4566"
         transform="translate(547.962,205.122)"
         d="M 0,31.4635 0,0 l 21.2183,0 0,3.71295 -17.05616,0 0,9.74385 14.76056,0 0,3.7129 -14.76056,0 0,14.2938 -4.16214,0 z"
         style="fill:#999999;fill-rule:evenodd;stroke:#999999;stroke-opacity:1"
         inkscape:connector-curvature="0" />
      <path
         id="path4568"
         transform="translate(460.325,228.42)"
         d="M 0,31.4635 0,0 l 21.2183,0 0,3.71295 -17.05616,0 0,9.74385 14.76056,0 0,3.7129 -14.76056,0 0,14.2938 -4.16214,0 z"
         style="fill:#999999;fill-rule:evenodd;stroke:#999999;stroke-opacity:1"
         inkscape:connector-curvature="0" />
      <path
         id="path4570"
         transform="translate(524.432,117.453)"
         d="M 0,31.4635 0,0 l 21.2183,0 0,3.71295 -17.05616,0 0,9.74385 14.76056,0 0,3.7129 -14.76056,0 0,14.2938 -4.16214,0 z"
         style="fill:#999999;fill-rule:evenodd;stroke:#999999;stroke-opacity:1"
         inkscape:connector-curvature="0" />
      <path
         id="path4572"
         transform="translate(45.825,7.92739)"
         d="M 0,31.4635 0,0 l 4.16214,0 0,12.9202 16.34816,0 0,-12.9202 4.1622,0 0,31.4635 -4.1622,0 0,-14.8303 -16.34816,0 0,14.8303 -4.16214,0 z"
         style="fill:#999999;fill-rule:evenodd;stroke:#999999;stroke-opacity:1"
         inkscape:connector-curvature="0" />
      <path
         id="path4574"
         transform="translate(2.40101,73.978)"
         d="M 0,19.9356 34.5745,0"
         style="fill:#999999;stroke:#999999;stroke-width:3.12188005;stroke-linecap:round;stroke-linejoin:bevel;stroke-dasharray:none;stroke-opacity:1"
         inkscape:connector-curvature="0" />
      <path
         id="path4576"
         transform="translate(78.7531,73.978)"
         d="M 0,0 34.5745,19.9356"
         style="fill:#999999;stroke:#999999;stroke-width:3.12188005;stroke-linecap:round;stroke-linejoin:bevel;stroke-dasharray:none;stroke-opacity:1"
         inkscape:connector-curvature="0" />
      <path
         id="path4578"
         transform="translate(113.328,61.9686)"
         d="M 0,31.9451 55.7034,0"
         style="fill:#999999;stroke:#999999;stroke-width:3.12188005;stroke-linecap:round;stroke-linejoin:bevel;stroke-dasharray:none;stroke-opacity:1"
         inkscape:connector-curvature="0" />
      <path
         id="path4580"
         transform="translate(169.031,61.9686)"
         d="M 0,0 55.4633,31.9451"
         style="fill:#999999;stroke:#999999;stroke-width:3.12188005;stroke-linecap:round;stroke-linejoin:bevel;stroke-dasharray:none;stroke-opacity:1"
         inkscape:connector-curvature="0" />
      <path
         id="path4582"
         transform="translate(224.494,74.6986)"
         d="M 0,19.2151 33.1339,0"
         style="fill:#999999;stroke:#999999;stroke-width:3.12188005;stroke-linecap:round;stroke-linejoin:bevel;stroke-dasharray:none;stroke-opacity:1"
         inkscape:connector-curvature="0" />
      <path
         id="path4584"
         transform="translate(302.527,74.9388)"
         d="M 0,0 32.8938,18.9749"
         style="fill:#999999;stroke:#999999;stroke-width:3.12188005;stroke-linecap:round;stroke-linejoin:bevel;stroke-dasharray:none;stroke-opacity:1"
         inkscape:connector-curvature="0" />
      <path
         id="path4586"
         transform="translate(335.421,61.9686)"
         d="M 0,31.9451 55.7034,0"
         style="fill:#999999;stroke:#999999;stroke-width:3.12188005;stroke-linecap:round;stroke-linejoin:bevel;stroke-dasharray:none;stroke-opacity:1"
         inkscape:connector-curvature="0" />
      <path
         id="path4588"
         transform="translate(345.745,74.6986)"
         d="M 0,26.9011 46.8197,0"
         style="fill:#999999;stroke:#999999;stroke-width:3.12188005;stroke-linecap:round;stroke-linejoin:bevel;stroke-dasharray:none;stroke-opacity:1"
         inkscape:connector-curvature="0" />
      <path
         id="path4590"
         transform="translate(391.124,61.9686)"
         d="M 0,0 55.4633,31.9451"
         style="fill:#999999;stroke:#999999;stroke-width:3.12188005;stroke-linecap:round;stroke-linejoin:bevel;stroke-dasharray:none;stroke-opacity:1"
         inkscape:connector-curvature="0" />
      <path
         id="path4592"
         transform="translate(446.587,93.9137)"
         d="M 0,0 0,64.1303"
         style="fill:#999999;stroke:#999999;stroke-width:3.12188005;stroke-linecap:round;stroke-linejoin:bevel;stroke-dasharray:none;stroke-opacity:1"
         inkscape:connector-curvature="0" />
      <path
         id="path4594"
         transform="translate(434.823,98.9576)"
         d="M 0,0 0,54.0424"
         style="fill:#999999;stroke:#999999;stroke-width:3.12188005;stroke-linecap:round;stroke-linejoin:bevel;stroke-dasharray:none;stroke-opacity:1"
         inkscape:connector-curvature="0" />
      <path
         id="path4596"
         transform="translate(391.124,158.044)"
         d="M 55.4633,0 0,32.1852"
         style="fill:#999999;stroke:#999999;stroke-width:3.12188005;stroke-linecap:round;stroke-linejoin:bevel;stroke-dasharray:none;stroke-opacity:1"
         inkscape:connector-curvature="0" />
      <path
         id="path4598"
         transform="translate(335.421,158.044)"
         d="M 55.7034,32.1852 0,0"
         style="fill:#999999;stroke:#999999;stroke-width:3.12188005;stroke-linecap:round;stroke-linejoin:bevel;stroke-dasharray:none;stroke-opacity:1"
         inkscape:connector-curvature="0" />
      <path
         id="path4600"
         transform="translate(345.745,150.358)"
         d="M 46.8197,27.1413 0,0"
         style="fill:#999999;stroke:#999999;stroke-width:3.12188005;stroke-linecap:round;stroke-linejoin:bevel;stroke-dasharray:none;stroke-opacity:1"
         inkscape:connector-curvature="0" />
      <path
         id="path4602"
         transform="translate(335.421,93.9137)"
         d="M 0,0 0,64.1303"
         style="fill:#999999;stroke:#999999;stroke-width:3.12188005;stroke-linecap:round;stroke-linejoin:bevel;stroke-dasharray:none;stroke-opacity:1"
         inkscape:connector-curvature="0" />
      <path
         id="path4604"
         transform="translate(446.587,158.044)"
         d="M 0,0 55.4633,32.1852"
         style="fill:#999999;stroke:#999999;stroke-width:3.12188005;stroke-linecap:round;stroke-linejoin:bevel;stroke-dasharray:none;stroke-opacity:1"
         inkscape:connector-curvature="0" />
      <path
         id="path4606"
         transform="translate(502.051,190.229)"
         d="M 0,0 36.7354,21.1366"
         style="fill:#999999;stroke:#999999;stroke-width:3.12188005;stroke-linecap:round;stroke-linejoin:bevel;stroke-dasharray:none;stroke-opacity:1"
         inkscape:connector-curvature="0" />
      <path
         id="path4608"
         transform="translate(483.083,190.229)"
         d="M 18.968,0 0,32.6656"
         style="fill:#999999;stroke:#999999;stroke-width:3.12188005;stroke-linecap:round;stroke-linejoin:bevel;stroke-dasharray:none;stroke-opacity:1"
         inkscape:connector-curvature="0" />
      <path
         id="path4610"
         transform="translate(502.051,157.323)"
         d="M 0,32.9058 18.968,0"
         style="fill:#999999;stroke:#999999;stroke-width:3.12188005;stroke-linecap:round;stroke-linejoin:bevel;stroke-dasharray:none;stroke-opacity:1"
         inkscape:connector-curvature="0" />
      <path
         id="path4612"
         transform="translate(224.494,93.9137)"
         d="M 0,0 0,64.1303"
         style="fill:#999999;stroke:#999999;stroke-width:3.12188005;stroke-linecap:round;stroke-linejoin:bevel;stroke-dasharray:none;stroke-opacity:1"
         inkscape:connector-curvature="0" />
      <path
         id="path4614"
         transform="translate(224.494,158.044)"
         d="M 0,0 55.4633,32.1852"
         style="fill:#999999;stroke:#999999;stroke-width:3.12188005;stroke-linecap:round;stroke-linejoin:bevel;stroke-dasharray:none;stroke-opacity:1"
         inkscape:connector-curvature="0" />
      <path
         id="path4616"
         transform="translate(223.054,170.774)"
         d="M 0,0 46.5796,27.1413"
         style="fill:#999999;stroke:#999999;stroke-width:3.12188005;stroke-linecap:round;stroke-linejoin:bevel;stroke-dasharray:none;stroke-opacity:1"
         inkscape:connector-curvature="0" />
      <path
         id="path4618"
         transform="translate(279.958,190.229)"
         d="M 0,0 0,64.1303"
         style="fill:#999999;stroke:#999999;stroke-width:3.12188005;stroke-linecap:round;stroke-linejoin:bevel;stroke-dasharray:none;stroke-opacity:1"
         inkscape:connector-curvature="0" />
      <path
         id="path4620"
         transform="translate(224.494,254.359)"
         d="M 55.4633,0 0,31.9451"
         style="fill:#999999;stroke:#999999;stroke-width:3.12188005;stroke-linecap:round;stroke-linejoin:bevel;stroke-dasharray:none;stroke-opacity:1"
         inkscape:connector-curvature="0" />
      <path
         id="path4622"
         transform="translate(223.054,246.673)"
         d="M 46.5796,0 0,26.9011"
         style="fill:#999999;stroke:#999999;stroke-width:3.12188005;stroke-linecap:round;stroke-linejoin:bevel;stroke-dasharray:none;stroke-opacity:1"
         inkscape:connector-curvature="0" />
      <path
         id="path4624"
         transform="translate(169.031,254.359)"
         d="M 55.4633,31.9451 0,0"
         style="fill:#999999;stroke:#999999;stroke-width:3.12188005;stroke-linecap:round;stroke-linejoin:bevel;stroke-dasharray:none;stroke-opacity:1"
         inkscape:connector-curvature="0" />
      <path
         id="path4626"
         transform="translate(169.031,190.229)"
         d="M 0,64.1303 0,0"
         style="fill:#999999;stroke:#999999;stroke-width:3.12188005;stroke-linecap:round;stroke-linejoin:bevel;stroke-dasharray:none;stroke-opacity:1"
         inkscape:connector-curvature="0" />
      <path
         id="path4628"
         transform="translate(180.796,195.273)"
         d="M 0,54.0424 0,0"
         style="fill:#999999;stroke:#999999;stroke-width:3.12188005;stroke-linecap:round;stroke-linejoin:bevel;stroke-dasharray:none;stroke-opacity:1"
         inkscape:connector-curvature="0" />
      <path
         id="path4630"
         transform="translate(169.031,158.044)"
         d="M 55.4633,0 0,32.1852"
         style="fill:#999999;stroke:#999999;stroke-width:3.12188005;stroke-linecap:round;stroke-linejoin:bevel;stroke-dasharray:none;stroke-opacity:1"
         inkscape:connector-curvature="0" />
    </g>
  </g>
</svg>
